mtllib terror_head_02.mtl
g Cube_016
v -0.597090 -0.233048 0.065088
v -0.662979 -0.044180 0.065552
v -0.623459 -0.097378 -0.083435
v -0.433055 -0.424264 0.433358
v -0.597090 -0.233048 0.065088
v -0.471929 -0.459072 0.105793
v -0.657372 -0.009609 0.167234
v -0.520727 0.234274 0.495728
v -0.604311 0.223026 0.059045
v -0.604311 0.223026 0.059045
v -0.405092 0.405501 -0.141101
v -0.550124 0.247307 -0.223961
v -0.211309 0.458249 -0.102980
v 0.172315 0.467511 -0.150058
v -0.161276 0.406934 -0.317935
v 0.172315 -0.467512 -0.150058
v -0.211309 -0.458250 -0.102980
v -0.161276 -0.406935 -0.317935
v -0.211309 -0.458250 -0.102980
v -0.471929 -0.459072 0.105793
v -0.405092 -0.405502 -0.141100
v -0.471929 0.459070 0.105793
v -0.452635 0.439795 0.454082
v -0.557314 0.529445 -0.482034
v 0.673750 -0.000001 0.040422
v 0.669232 0.318638 -0.540401
v 0.763994 -0.000000 -0.557426
v -0.554902 -0.000001 0.530346
v -0.543517 0.242851 0.518735
v -0.520727 0.234274 0.495728
v -0.520727 0.234274 0.495728
v -0.452635 0.439795 0.454082
v -0.433055 0.424263 0.433358
v -0.520727 -0.234275 0.495728
v -0.452635 -0.439796 0.454082
v -0.543517 -0.242852 0.518735
v 0.154613 -0.539642 0.029651
v 0.398514 -0.531700 -0.508391
v 0.165274 -0.622367 -0.569848
v -0.554902 -0.000001 0.530346
v -0.543517 -0.242852 0.518735
v -0.578943 -0.000000 0.554620
v -0.471929 -0.459072 0.105793
v -0.452635 -0.439796 0.454082
v -0.433055 -0.424264 0.433358
v -0.155314 -0.258636 -0.502034
v -0.339087 -0.398875 -0.366360
v -0.422494 -0.261546 -0.539235
v -0.134586 -0.000001 -0.581057
v -0.422494 -0.261546 -0.539235
v -0.496786 -0.011803 -0.696953
v -0.211309 -0.458250 -0.102980
v 0.165274 -0.622367 -0.569848
v -0.256742 -0.528498 -0.722811
v -0.161276 -0.406935 -0.317935
v -0.155314 -0.258636 -0.502034
v -0.045430 -0.262450 -0.440581
v 0.299344 0.447136 -0.080754
v 0.125382 0.347282 -0.340024
v 0.172315 0.467511 -0.150058
v -0.431025 0.253397 -0.549357
v -0.134586 -0.000001 -0.581057
v -0.496786 -0.011803 -0.696953
v -0.339087 0.398874 -0.366360
v -0.155313 0.258634 -0.502034
v -0.431025 0.253397 -0.549357
v -0.211309 -0.458250 -0.102980
v -0.339087 -0.398875 -0.366360
v -0.161276 -0.406935 -0.317935
v -0.471929 0.459070 0.105793
v -0.287388 0.606087 -0.430649
v -0.237881 0.525524 0.150347
v -0.211309 0.458249 -0.102980
v -0.287388 0.606087 -0.430649
v -0.256742 0.528498 -0.722811
v 0.299344 -0.447137 -0.080754
v 0.154613 -0.539642 0.029651
v 0.172315 -0.467512 -0.150058
v -0.471929 -0.459072 0.105793
v -0.287388 -0.606087 -0.430649
v -0.557314 -0.529445 -0.482034
v 0.447797 -0.239262 -0.134688
v 0.356850 -0.461027 0.082939
v 0.299344 -0.447137 -0.080754
v 0.552416 -0.023551 -0.123856
v 0.591584 -0.276285 0.055184
v 0.447797 -0.239262 -0.134688
v 0.154613 0.539641 0.029651
v 0.398514 0.531700 -0.508391
v 0.356850 0.461025 0.082939
v 0.673750 -0.000001 0.040422
v 0.669232 -0.318638 -0.540401
v 0.591584 -0.276285 0.055184
v -0.211309 -0.458250 -0.102980
v -0.287388 -0.606087 -0.430649
v -0.237881 -0.525526 0.150347
v 0.486407 0.236267 -0.139723
v 0.673750 -0.000001 0.040422
v 0.552416 -0.023551 -0.123856
v 0.356850 0.461025 0.082939
v 0.486407 0.236267 -0.139723
v 0.299344 0.447136 -0.080754
v -0.211309 0.458249 -0.102980
v 0.165274 0.622367 -0.569848
v 0.154613 0.539641 0.029651
v 0.154613 0.539641 0.029651
v 0.299344 0.447136 -0.080754
v 0.172315 0.467511 -0.150058
v 0.591584 -0.276285 0.055184
v 0.398514 -0.531700 -0.508391
v 0.356850 -0.461027 0.082939
v -0.520727 0.234274 0.495728
v -0.471929 0.459070 0.105793
v -0.604311 0.223026 0.059045
v -0.339087 0.398874 -0.366360
v -0.211309 0.458249 -0.102980
v -0.161276 0.406934 -0.317935
v -0.471929 0.459070 0.105793
v -0.211309 0.458249 -0.102980
v -0.405092 0.405501 -0.141101
v -0.550124 0.247307 -0.223961
v -0.339087 0.398874 -0.366360
v -0.431025 0.253397 -0.549357
v -0.612927 -0.034979 -0.271125
v -0.550124 0.247307 -0.223961
v -0.431025 0.253397 -0.549357
v -0.622552 -0.052827 -0.218467
v -0.763994 -0.033157 -0.203698
v -0.612927 -0.034979 -0.271125
v -0.520727 -0.234275 0.495728
v -0.554902 -0.000001 0.530346
v -0.657372 -0.009609 0.167234
v -0.543401 -0.275666 -0.217604
v -0.622552 -0.052827 -0.218467
v -0.612927 -0.034979 -0.271125
v -0.339087 -0.398875 -0.366360
v -0.543401 -0.275666 -0.217604
v -0.422494 -0.261546 -0.539235
v -0.405092 -0.405502 -0.141100
v -0.597090 -0.233048 0.065088
v -0.543401 -0.275666 -0.217604
v -0.621381 0.060667 -0.089509
v -0.604311 0.223026 0.059045
v -0.550124 0.247307 -0.223961
v -0.763994 -0.033157 -0.203698
v -0.687694 -0.030038 -0.061012
v -0.621381 0.060667 -0.089509
v -0.687694 -0.030038 -0.061012
v -0.664163 0.017594 0.064634
v -0.621381 0.060667 -0.089509
v -0.687694 -0.030038 -0.061012
v -0.662979 -0.044180 0.065552
v -0.657372 -0.009609 0.167234
v -0.619234 -0.006382 -0.217412
v -0.763994 -0.033157 -0.203698
v -0.621381 0.060667 -0.089509
v -0.687694 -0.030038 -0.061012
v -0.763994 -0.033157 -0.203698
v -0.623459 -0.097378 -0.083435
v 0.591584 0.276283 0.055184
v 0.398514 0.531700 -0.508391
v 0.669232 0.318638 -0.540401
v 0.125382 -0.347283 -0.340024
v 0.299344 -0.447137 -0.080754
v 0.172315 -0.467512 -0.150058
v -0.045430 0.262448 -0.440581
v -0.155313 0.258634 -0.502034
v -0.161276 0.406934 -0.317935
v -0.134586 -0.000001 -0.581057
v -0.045430 -0.262450 -0.440581
v -0.155314 -0.258636 -0.502034
v -0.045430 0.262448 -0.440581
v -0.134586 -0.000001 -0.581057
v -0.155313 0.258634 -0.502034
v 0.125382 -0.347283 -0.340024
v 0.545224 -0.241110 -0.614302
v 0.447797 -0.239262 -0.134688
v 0.500373 -0.492210 0.310935
v 0.234011 -0.508439 0.679747
v 0.202278 -0.555215 0.282077
v -0.275242 0.481819 0.557109
v 0.202278 0.555214 0.282077
v -0.287388 0.606087 -0.430649
v 0.202278 0.555214 0.282077
v 0.398514 0.531700 -0.508391
v 0.165274 0.622367 -0.569848
v 0.711798 0.271332 0.324778
v 0.763994 -0.000000 -0.557426
v 0.669232 0.318638 -0.540401
v 0.463032 0.467684 0.653524
v 0.711798 0.271332 0.324778
v 0.500373 0.492209 0.310935
v 0.739671 -0.000001 0.335988
v 0.513475 -0.264994 0.722811
v 0.711798 -0.271333 0.324778
v 0.669232 -0.318638 -0.540401
v 0.500373 -0.492210 0.310935
v 0.398514 -0.531700 -0.508391
v -0.275242 -0.481819 0.557109
v 0.202278 -0.555215 0.282077
v 0.234011 -0.508439 0.679747
v 0.234011 0.508438 0.679747
vt 0.275895 0.876077
vt 0.302003 0.880469
vt 0.289451 0.898271
vt 0.253119 0.832801
vt 0.275895 0.876077
vt 0.247864 0.866097
vt 0.157716 0.826670
vt 0.128467 0.870013
vt 0.126351 0.818951
vt 0.126351 0.818951
vt 0.089270 0.804686
vt 0.111055 0.787815
vt 0.066101 0.813366
vt 0.016166 0.815248
vt 0.057076 0.787237
vt 0.166661 0.887126
vt 0.216592 0.886620
vt 0.208812 0.913274
vt 0.216592 0.886620
vt 0.247864 0.866097
vt 0.240349 0.894032
vt 0.210716 0.567594
vt 0.211086 0.601487
vt 0.209687 0.559704
vt 0.367158 0.648070
vt 0.353351 0.613886
vt 0.372136 0.614849
vt 0.234837 0.623696
vt 0.221556 0.613366
vt 0.223062 0.611718
vt 0.223062 0.611718
vt 0.211086 0.601487
vt 0.213228 0.599765
vt 0.290219 0.585873
vt 0.274223 0.580129
vt 0.291241 0.583856
vt 0.240851 0.626177
vt 0.250067 0.659918
vt 0.234908 0.659603
vt 0.306162 0.592931
vt 0.291241 0.583856
vt 0.307672 0.590798
vt 0.301947 0.613676
vt 0.274223 0.580129
vt 0.276008 0.581233
vt 0.208915 0.942353
vt 0.229739 0.919049
vt 0.240961 0.943636
vt 0.205205 0.977371
vt 0.240961 0.943636
vt 0.257051 0.978533
vt 0.257233 0.596184
vt 0.234908 0.573242
vt 0.251842 0.578393
vt 0.208812 0.913274
vt 0.208915 0.942353
vt 0.193285 0.937522
vt 0.689352 0.808342
vt 0.708984 0.769695
vt 0.706737 0.800469
vt 0.088201 0.754826
vt 0.051399 0.723716
vt 0.102803 0.719416
vt 0.077521 0.780584
vt 0.056032 0.758401
vt 0.088201 0.754826
vt 0.216592 0.886620
vt 0.229739 0.919049
vt 0.208812 0.913274
vt 0.210716 0.567594
vt 0.209557 0.555016
vt 0.216327 0.565609
vt 0.215421 0.559899
vt 0.209557 0.555016
vt 0.210701 0.552329
vt 0.807252 0.903913
vt 0.826764 0.885622
vt 0.824620 0.911771
vt 0.301947 0.613676
vt 0.254166 0.572114
vt 0.313101 0.624048
vt 0.777444 0.921291
vt 0.797639 0.883971
vt 0.807252 0.903913
vt 0.745464 0.931118
vt 0.762510 0.894327
vt 0.777444 0.921291
vt 0.323577 0.647261
vt 0.332794 0.613519
vt 0.335243 0.648786
vt 0.284432 0.625368
vt 0.270625 0.659551
vt 0.268173 0.626297
vt 0.257233 0.596184
vt 0.254166 0.572114
vt 0.275644 0.624581
vt 0.655529 0.790999
vt 0.609577 0.804401
vt 0.621016 0.778827
vt 0.679984 0.828378
vt 0.655529 0.790999
vt 0.689352 0.808342
vt 0.215421 0.559899
vt 0.202910 0.522499
vt 0.234837 0.543808
vt 0.708984 0.826527
vt 0.689352 0.808342
vt 0.706737 0.800469
vt 0.268173 0.626297
vt 0.250067 0.659918
vt 0.252516 0.624652
vt 0.128467 0.870013
vt 0.098762 0.832015
vt 0.126351 0.818951
vt 0.077521 0.780584
vt 0.066101 0.813366
vt 0.057076 0.787237
vt 0.098762 0.832015
vt 0.066101 0.813366
vt 0.089270 0.804686
vt 0.111055 0.787815
vt 0.077521 0.780584
vt 0.088201 0.754826
vt 0.142098 0.764504
vt 0.111055 0.787815
vt 0.088201 0.754826
vt 0.287175 0.918673
vt 0.306658 0.918434
vt 0.285488 0.926470
vt 0.275629 0.825646
vt 0.304092 0.817423
vt 0.305638 0.866609
vt 0.260878 0.908082
vt 0.289998 0.920833
vt 0.288695 0.927726
vt 0.229739 0.919049
vt 0.260878 0.908082
vt 0.240961 0.943636
vt 0.240349 0.894032
vt 0.275895 0.876077
vt 0.260878 0.908082
vt 0.140953 0.794831
vt 0.126351 0.818951
vt 0.111055 0.787815
vt 0.159571 0.773455
vt 0.155939 0.795047
vt 0.139806 0.793931
vt 0.156690 0.795887
vt 0.153292 0.814098
vt 0.140526 0.794901
vt 0.302337 0.897114
vt 0.301570 0.879425
vt 0.307399 0.865957
vt 0.138795 0.773740
vt 0.158691 0.773326
vt 0.138956 0.793768
vt 0.301736 0.897904
vt 0.306867 0.919125
vt 0.288506 0.899329
vt 0.350900 0.647141
vt 0.332794 0.613519
vt 0.353351 0.613886
vt 0.826764 0.942670
vt 0.807252 0.903913
vt 0.824620 0.911771
vt 0.040647 0.763723
vt 0.056032 0.758401
vt 0.057076 0.787237
vt 0.205205 0.977371
vt 0.193285 0.937522
vt 0.208915 0.942353
vt 0.040647 0.763723
vt 0.051399 0.723716
vt 0.056032 0.758401
vt 0.888253 0.696367
vt 0.933436 0.653385
vt 0.933652 0.712924
vt 0.258851 0.706076
vt 0.250550 0.727873
vt 0.243381 0.707376
vt 0.200066 0.606944
vt 0.170624 0.583964
vt 0.209557 0.555016
vt 0.326108 0.566061
vt 0.332794 0.613519
vt 0.317635 0.613835
vt 0.357633 0.567418
vt 0.372136 0.614849
vt 0.353351 0.613886
vt 0.343755 0.551503
vt 0.357633 0.567418
vt 0.341578 0.567361
vt 0.289410 0.708345
vt 0.269871 0.727634
vt 0.274906 0.706019
vt 0.270625 0.659551
vt 0.258851 0.706076
vt 0.250067 0.659918
vt 0.278325 0.563257
vt 0.257314 0.546305
vt 0.273439 0.527014
vt 0.164729 0.613020
vn -0.901273 -0.433133 -0.010163
vn -0.930342 -0.354204 0.094884
vn -0.828322 -0.557281 -0.057620
vn -0.967663 0.152411 -0.200997
vn -0.901273 -0.433133 -0.010163
vn -0.930358 0.302103 -0.207770
vn -0.982529 -0.013917 0.185586
vn -0.922299 0.204267 -0.328085
vn -0.912549 0.407978 -0.028413
vn -0.912549 0.407978 -0.028413
vn -0.503471 0.839668 -0.203653
vn -0.842024 0.497310 -0.208995
vn -0.761362 0.509060 -0.401480
vn 0.210794 0.865484 -0.454426
vn 0.076114 0.884533 -0.460227
vn 0.210794 -0.865484 -0.454426
vn -0.761362 -0.509060 -0.401480
vn 0.076114 -0.884533 -0.460227
vn -0.761362 -0.509060 -0.401480
vn -0.930358 0.302103 -0.207770
vn -0.484679 -0.854270 -0.187908
vn -0.931474 -0.299759 -0.206157
vn -0.820329 0.558503 0.123023
vn -0.531062 -0.040712 -0.846354
vn -0.382743 -0.011017 -0.923789
vn 0.161598 0.193216 -0.967757
vn 0.237196 0.000000 -0.971462
vn -0.951663 0.001343 -0.307140
vn -0.951006 0.304459 -0.053775
vn -0.922299 0.204267 -0.328085
vn -0.922299 0.204267 -0.328085
vn -0.820329 0.558503 0.123023
vn -0.967511 -0.152808 -0.201425
vn -0.922377 -0.206065 -0.326737
vn -0.820329 -0.558503 0.123023
vn -0.951006 -0.304459 -0.053775
vn 0.156656 0.268998 -0.950315
vn -0.090000 -0.253124 -0.963238
vn 0.683544 -0.217176 -0.696851
vn -0.951663 0.001343 -0.307140
vn -0.951006 -0.304459 -0.053775
vn -0.999977 0.000000 -0.006836
vn -0.930358 0.302103 -0.207770
vn -0.820329 -0.558503 0.123023
vn -0.967663 0.152411 -0.200997
vn 0.263534 -0.534880 -0.802778
vn -0.239514 -0.885389 -0.398396
vn -0.379747 -0.634550 -0.673156
vn -0.446041 -0.001343 -0.895012
vn -0.379747 -0.634550 -0.673156
vn -0.465691 -0.023835 -0.884626
vn -0.761362 -0.509060 -0.401480
vn 0.683544 -0.217176 -0.696851
vn -0.397206 0.148567 -0.905624
vn 0.076114 -0.884533 -0.460227
vn 0.263534 -0.534880 -0.802778
vn -0.118538 -0.809530 -0.574987
vn 0.500819 0.770333 -0.394673
vn 0.134771 0.918313 -0.372208
vn 0.210794 0.865484 -0.454426
vn -0.412625 0.609416 -0.677017
vn -0.446041 -0.001343 -0.895012
vn -0.465691 -0.023835 -0.884626
vn -0.256119 0.882470 -0.394525
vn 0.268382 0.537648 -0.799316
vn -0.412625 0.609416 -0.677017
vn -0.761362 -0.509060 -0.401480
vn -0.239514 -0.885389 -0.398396
vn 0.076114 -0.884533 -0.460227
vn -0.931474 -0.299759 -0.206157
vn -0.824795 0.563180 -0.050418
vn -0.447779 -0.179392 -0.875964
vn -0.761362 0.509060 -0.401480
vn -0.824795 0.563180 -0.050418
vn -0.397206 -0.148567 -0.905624
vn 0.535734 -0.742289 -0.402487
vn 0.156656 0.268998 -0.950315
vn 0.210794 -0.865484 -0.454426
vn -0.930358 0.302103 -0.207770
vn -0.824795 -0.563180 -0.050418
vn -0.531063 0.040682 -0.846355
vn 0.697277 -0.650704 -0.300647
vn 0.090795 0.266586 -0.959525
vn 0.535734 -0.742289 -0.402487
vn 0.942435 -0.071262 -0.326709
vn -0.341694 0.183543 -0.921714
vn 0.697277 -0.650704 -0.300647
vn 0.156656 -0.268998 -0.950315
vn -0.090000 0.253124 -0.963238
vn 0.072636 -0.230633 -0.970326
vn -0.382743 -0.011017 -0.923789
vn 0.161598 -0.193216 -0.967757
vn -0.341694 0.183543 -0.921714
vn -0.761362 -0.509060 -0.401480
vn -0.824795 -0.563180 -0.050418
vn -0.447779 0.179392 -0.875964
vn 0.756818 0.573489 -0.313586
vn -0.382743 -0.011017 -0.923789
vn 0.942435 -0.071262 -0.326709
vn 0.072636 -0.230633 -0.970326
vn 0.756818 0.573489 -0.313586
vn 0.500819 0.770333 -0.394673
vn -0.761362 0.509060 -0.401480
vn 0.683544 0.217176 -0.696851
vn 0.156656 -0.268998 -0.950315
vn 0.156656 -0.268998 -0.950315
vn 0.500819 0.770333 -0.394673
vn 0.210794 0.865484 -0.454426
vn -0.341694 0.183543 -0.921714
vn -0.090000 -0.253124 -0.963238
vn 0.090795 0.266586 -0.959525
vn -0.922299 0.204267 -0.328085
vn -0.931474 -0.299759 -0.206157
vn -0.912549 0.407978 -0.028413
vn -0.256119 0.882470 -0.394525
vn -0.761362 0.509060 -0.401480
vn 0.076114 0.884533 -0.460227
vn -0.931474 -0.299759 -0.206157
vn -0.761362 0.509060 -0.401480
vn -0.503471 0.839668 -0.203653
vn -0.842024 0.497310 -0.208995
vn -0.256119 0.882470 -0.394525
vn -0.412625 0.609416 -0.677017
vn -0.909259 -0.047305 -0.413535
vn -0.842024 0.497310 -0.208995
vn -0.412625 0.609416 -0.677017
vn -0.605688 -0.732527 -0.310718
vn -0.912220 -0.049502 -0.406699
vn -0.909259 -0.047305 -0.413535
vn -0.922377 -0.206065 -0.326737
vn -0.951663 0.001343 -0.307140
vn -0.982529 -0.013917 0.185586
vn -0.805174 -0.560679 -0.193221
vn -0.605688 -0.732527 -0.310718
vn -0.909259 -0.047305 -0.413535
vn -0.239514 -0.885389 -0.398396
vn -0.805174 -0.560679 -0.193221
vn -0.379747 -0.634550 -0.673156
vn -0.484679 -0.854270 -0.187908
vn -0.901273 -0.433133 -0.010163
vn -0.805174 -0.560679 -0.193221
vn -0.876427 0.465238 -0.124214
vn -0.912549 0.407978 -0.028413
vn -0.842024 0.497310 -0.208995
vn -0.912220 -0.049502 -0.406699
vn -0.966218 -0.090735 0.241226
vn -0.876427 0.465238 -0.124214
vn -0.966218 -0.090735 0.241226
vn -0.959036 0.280227 0.041506
vn -0.876427 0.465238 -0.124214
vn -0.966218 -0.090735 0.241226
vn -0.930342 -0.354204 0.094884
vn -0.982529 -0.013917 0.185586
vn -0.653960 0.646483 -0.392932
vn -0.912220 -0.049502 -0.406699
vn -0.876427 0.465238 -0.124214
vn -0.966218 -0.090735 0.241226
vn -0.912220 -0.049502 -0.406699
vn -0.828322 -0.557281 -0.057620
vn -0.305435 -0.170052 -0.936905
vn -0.090000 0.253124 -0.963238
vn 0.161598 0.193216 -0.967757
vn 0.143775 -0.918497 -0.368363
vn 0.535734 -0.742289 -0.402487
vn 0.210794 -0.865484 -0.454426
vn -0.118538 0.809530 -0.574987
vn 0.268382 0.537648 -0.799316
vn 0.076114 0.884533 -0.460227
vn -0.446041 -0.001343 -0.895012
vn -0.118538 -0.809530 -0.574987
vn 0.263534 -0.534880 -0.802778
vn -0.118538 0.809530 -0.574987
vn -0.446041 -0.001343 -0.895012
vn 0.268382 0.537648 -0.799316
vn 0.143775 -0.918497 -0.368363
vn 0.700944 -0.500552 -0.508060
vn 0.697277 -0.650704 -0.300647
vn 0.488213 -0.870555 0.061496
vn 0.078403 -0.863444 0.498314
vn 0.072667 -0.993345 0.089361
vn -0.306778 0.858992 0.409903
vn 0.072667 0.993345 0.089361
vn -0.824795 0.563180 -0.050418
vn 0.072667 0.993345 0.089361
vn -0.090000 0.253124 -0.963238
vn 0.683544 0.217176 -0.696851
vn 0.904218 0.385517 0.183755
vn 0.237196 0.000000 -0.971462
vn 0.161598 0.193216 -0.967757
vn 0.466826 0.704786 0.534182
vn 0.904218 0.385517 0.183755
vn 0.488213 0.870555 0.061496
vn 0.969576 0.000000 0.244790
vn 0.681317 -0.295367 0.669750
vn 0.904218 -0.385517 0.183755
vn 0.161598 -0.193216 -0.967757
vn 0.488213 -0.870555 0.061496
vn -0.090000 -0.253124 -0.963238
vn -0.306778 -0.858992 0.409903
vn 0.072667 -0.993345 0.089361
vn 0.078403 -0.863444 0.498314
vn 0.078403 0.863444 0.498314
usemtl head_mat
f 1/1/1 2/2/2 3/3/3
f 4/4/4 5/5/5 6/6/6
f 7/7/7 8/8/8 9/9/9
f 10/10/10 11/11/11 12/12/12
f 13/13/13 14/14/14 15/15/15
f 16/16/16 17/17/17 18/18/18
f 19/19/19 20/20/20 21/21/21
f 22/22/22 23/23/23 24/24/24
f 25/25/25 26/26/26 27/27/27
f 28/28/28 29/29/29 30/30/30
f 31/31/31 32/32/32 33/33/33
f 34/34/34 35/35/35 36/36/36
f 37/37/37 38/38/38 39/39/39
f 40/40/40 41/41/41 42/42/42
f 43/43/43 44/44/44 45/45/45
f 46/46/46 47/47/47 48/48/48
f 49/49/49 50/50/50 51/51/51
f 52/52/52 53/53/53 54/54/54
f 55/55/55 56/56/56 57/57/57
f 58/58/58 59/59/59 60/60/60
f 61/61/61 62/62/62 63/63/63
f 64/64/64 65/65/65 66/66/66
f 67/67/67 68/68/68 69/69/69
f 70/70/70 71/71/71 72/72/72
f 73/73/73 74/74/74 75/75/75
f 76/76/76 77/77/77 78/78/78
f 79/79/79 80/80/80 81/81/81
f 82/82/82 83/83/83 84/84/84
f 85/85/85 86/86/86 87/87/87
f 88/88/88 89/89/89 90/90/90
f 91/91/91 92/92/92 93/93/93
f 94/94/94 95/95/95 96/96/96
f 97/97/97 98/98/98 99/99/99
f 100/100/100 101/101/101 102/102/102
f 103/103/103 104/104/104 105/105/105
f 106/106/106 107/107/107 108/108/108
f 109/109/109 110/110/110 111/111/111
f 112/112/112 113/113/113 114/114/114
f 115/115/115 116/116/116 117/117/117
f 118/118/118 119/119/119 120/120/120
f 121/121/121 122/122/122 123/123/123
f 124/124/124 125/125/125 126/126/126
f 127/127/127 128/128/128 129/129/129
f 130/130/130 131/131/131 132/132/132
f 133/133/133 134/134/134 135/135/135
f 136/136/136 137/137/137 138/138/138
f 139/139/139 140/140/140 141/141/141
f 142/142/142 143/143/143 144/144/144
f 145/145/145 146/146/146 147/147/147
f 148/148/148 149/149/149 150/150/150
f 151/151/151 152/152/152 153/153/153
f 154/154/154 155/155/155 156/156/156
f 157/157/157 158/158/158 159/159/159
f 160/160/160 161/161/161 162/162/162
f 163/163/163 164/164/164 165/165/165
f 166/166/166 167/167/167 168/168/168
f 169/169/169 170/170/170 171/171/171
f 172/172/172 173/173/173 174/174/174
f 175/175/175 176/176/176 177/177/177
f 178/178/178 179/179/179 180/180/180
f 181/181/181 182/182/182 183/183/183
f 184/184/184 185/185/185 186/186/186
f 187/187/187 188/188/188 189/189/189
f 190/190/190 191/191/191 192/192/192
f 193/193/193 194/194/194 195/195/195
f 196/196/196 197/197/197 198/198/198
f 199/199/199 200/200/200 201/201/201
f 202/202/202 203/203/203 204/204/204
f 205/205/205 206/206/206 207/207/207
f 208/208/208 209/209/209 210/210/210
f 211/211/211 212/212/212 213/213/213
f 214/214/214 215/215/215 216/216/216
f 217/217/217 218/218/218 219/219/219
f 220/220/220 221/221/221 222/222/222
f 223/223/223 224/224/224 225/225/225
f 226/226/226 227/227/227 228/228/228
f 229/229/229 230/230/230 231/231/231
f 232/232/232 233/233/233 234/234/234
f 235/235/235 236/236/236 237/237/237
f 238/238/238 239/239/239 240/240/240
f 241/241/241 242/242/242 243/243/243
f 244/244/244 245/245/245 246/246/246
f 247/247/247 248/248/248 249/249/249
f 250/250/250 251/251/251 252/252/252
f 253/253/253 254/254/254 255/255/255
f 256/256/256 257/257/257 258/258/258
f 259/259/259 260/260/260 261/261/261
f 262/262/262 263/263/263 264/264/264
f 265/265/265 266/266/266 267/267/267
f 268/268/268 269/269/269 270/270/270
f 271/271/271 272/272/272 273/273/273
f 274/274/274 275/275/275 276/276/276
f 277/277/277 278/278/278 279/279/279
f 280/280/280 281/281/281 282/282/282
f 283/283/283 284/284/284 285/285/285
f 286/286/286 287/287/287 288/288/288
f 289/289/289 290/290/290 291/291/291
f 292/292/292 293/293/293 294/294/294
f 295/295/295 296/296/296 297/297/297
f 298/298/298 299/299/299 300/300/300
f 301/301/301 302/302/302 303/303/303
f 304/304/304 305/305/305 306/306/306
f 307/307/307 308/308/308 309/309/309
f 310/310/310 311/311/311 312/312/312
f 313/313/313 314/314/314 315/315/315
f 316/316/316 317/317/317 318/318/318
f 319/319/319 320/320/320 321/321/321
f 322/322/322 323/323/323 324/324/324
f 325/325/325 326/326/326 327/327/327
f 328/328/328 329/329/329 330/330/330
f 331/331/331 332/332/332 333/333/333
f 334/334/334 335/335/335 336/336/336
f 337/337/337 338/338/338 339/339/339
f 340/340/340 341/341/341 342/342/342
f 343/343/343 344/344/344 345/345/345
f 346/346/346 347/347/347 348/348/348
f 349/349/349 350/350/350 351/351/351
f 352/352/352 353/353/353 354/354/354
f 355/355/355 356/356/356 357/357/357
f 358/358/358 359/359/359 360/360/360
f 361/361/361 362/362/362 363/363/363
f 364/364/364 365/365/365 366/366/366
f 367/367/367 368/368/368 369/369/369
f 370/370/370 371/371/371 372/372/372
f 373/373/373 374/374/374 375/375/375
f 376/376/376 377/377/377 378/378/378
f 379/379/379 380/380/380 381/381/381
f 382/382/382 383/383/383 384/384/384
f 385/385/385 386/386/386 387/387/387
f 388/388/388 389/389/389 390/390/390
f 391/391/391 392/392/392 393/393/393
f 394/394/394 395/395/395 396/396/396
f 397/397/397 398/398/398 399/399/399
f 400/400/400 401/401/401 402/402/402
f 403/403/403 404/404/404 405/405/405
f 406/406/406 407/407/407 408/408/408
f 409/409/409 410/410/410 411/411/411
f 412/412/412 413/413/413 414/414/414
f 415/415/415 416/416/416 417/417/417
f 418/418/418 419/419/419 420/420/420
f 421/421/421 422/422/422 423/423/423
f 424/424/424 425/425/425 426/426/426
f 427/427/427 428/428/428 429/429/429
f 430/430/430 431/431/431 432/432/432
f 433/433/433 434/434/434 435/435/435
f 436/436/436 437/437/437 438/438/438
f 439/439/439 440/440/440 441/441/441
f 442/442/442 443/443/443 444/444/444
f 445/445/445 446/446/446 447/447/447
f 448/448/448 449/449/449 450/450/450
f 451/451/451 452/452/452 453/453/453
f 454/454/454 455/455/455 456/456/456
f 457/457/457 458/458/458 459/459/459
f 460/460/460 461/461/461 462/462/462
f 463/463/463 464/464/464 465/465/465
f 466/466/466 467/467/467 468/468/468
f 469/469/469 470/470/470 471/471/471
f 472/472/472 473/473/473 474/474/474
f 475/475/475 476/476/476 477/477/477
f 478/478/478 479/479/479 480/480/480
f 481/481/481 482/482/482 483/483/483
f 484/484/484 485/485/485 486/486/486
f 487/487/487 488/488/488 489/489/489
f 490/490/490 491/491/491 492/492/492
f 493/493/493 494/494/494 495/495/495
f 496/496/496 497/497/497 498/498/498
f 499/499/499 500/500/500 501/501/501
f 502/502/502 503/503/503 504/504/504
f 505/505/505 506/506/506 507/507/507
f 508/508/508 509/509/509 510/510/510
f 511/511/511 512/512/512 513/513/513
f 514/514/514 515/515/515 516/516/516
f 517/517/517 518/518/518 519/519/519
f 520/520/520 521/521/521 522/522/522
f 523/523/523 524/524/524 525/525/525
f 526/526/526 527/527/527 528/528/528
f 529/529/529 530/530/530 531/531/531
f 532/532/532 533/533/533 534/534/534
f 535/535/535 536/536/536 537/537/537
f 538/538/538 539/539/539 540/540/540
f 541/541/541 542/542/542 543/543/543
f 544/544/544 545/545/545 546/546/546
f 547/547/547 548/548/548 549/549/549
f 550/550/550 551/551/551 552/552/552
f 553/553/553 554/554/554 555/555/555
f 556/556/556 557/557/557 558/558/558
f 559/559/559 560/560/560 561/561/561
f 562/562/562 563/563/563 564/564/564
f 565/565/565 566/566/566 567/567/567
f 568/568/568 569/569/569 570/570/570
f 571/571/571 572/572/572 573/573/573
f 574/574/574 575/575/575 576/576/576
f 577/577/577 578/578/578 579/579/579
f 580/580/580 581/581/581 582/582/582
f 583/583/583 584/584/584 585/585/585
f 586/586/586 587/587/587 588/588/588
f 589/589/589 590/590/590 591/591/591
f 592/592/592 593/593/593 594/594/594
f 595/595/595 596/596/596 597/597/597
f 598/598/598 599/599/599 600/600/600
f 601/601/601 602/602/602 603/603/603
f 604/604/604 605/605/605 606/606/606
