mtllib terror_head_03.mtl
g Cube_034
v -0.409630 -0.424263 0.324873
v -0.573664 -0.233047 -0.043397
v -0.448503 -0.459071 -0.002692
v -0.633947 -0.009608 -0.025589
v -0.497302 0.234275 0.387243
v -0.580886 0.223027 -0.049439
v -0.580886 0.223027 -0.049439
v -0.407600 0.253398 -0.657842
v -0.597956 0.060668 -0.282332
v 0.509722 -0.474826 0.186781
v 0.252767 -0.490483 0.542569
v 0.222154 -0.535607 0.158943
v -0.448503 0.459071 -0.002692
v -0.137851 0.406935 -0.426419
v -0.315662 0.398875 -0.474845
v -0.238501 0.464803 0.424262
v 0.222154 0.535607 0.158943
v -0.214456 0.525525 0.041863
v -0.214456 0.525525 0.041863
v 0.195740 0.467512 -0.258543
v -0.137851 0.406935 -0.426419
v 0.509722 0.474826 0.186781
v 0.509832 0.236268 -0.248207
v 0.322769 0.447137 -0.189239
v 0.473700 0.451168 0.517272
v 0.713680 0.261750 0.200136
v 0.509722 0.474826 0.186781
v 0.740569 -0.000000 0.210949
v 0.522361 -0.255635 0.584112
v 0.713680 -0.261750 0.200136
v 0.713680 -0.261750 0.200136
v 0.575841 -0.023550 -0.232340
v 0.740569 -0.000000 0.210949
v 0.322769 -0.447137 -0.189239
v 0.222154 -0.535607 0.158943
v 0.195740 -0.467512 -0.258543
v -0.238501 -0.464803 0.424262
v 0.222154 -0.535607 0.158943
v 0.252767 -0.490483 0.542569
v -0.214456 -0.525525 0.041863
v 0.195740 -0.467512 -0.258543
v 0.222154 -0.535607 0.158943
v 0.252767 0.490483 0.542569
v -0.293587 0.234985 0.658324
v 0.238871 0.249804 0.755512
v -0.312361 0.000000 0.707910
v 0.238871 -0.249804 0.755512
v 0.246701 0.000000 0.805438
v -0.293587 0.234985 0.658324
v -0.531477 0.000000 0.421861
v -0.312361 0.000000 0.707910
v -0.497302 -0.234275 0.387243
v -0.238501 -0.464803 0.424262
v -0.293587 -0.234985 0.658324
v 0.522361 -0.255635 0.584112
v 0.252767 -0.490483 0.542569
v 0.473700 -0.451168 0.517272
v 0.534754 0.000000 0.623840
v 0.238871 -0.249804 0.755512
v 0.522361 -0.255635 0.584112
v -0.409630 0.424263 0.324873
v -0.214456 0.525525 0.041863
v -0.448503 0.459071 -0.002692
v -0.531477 0.000000 0.421861
v -0.293587 -0.234985 0.658324
v -0.312361 0.000000 0.707910
v -0.293587 -0.234985 0.658324
v 0.252767 -0.490483 0.542569
v 0.238871 -0.249804 0.755512
v -0.238501 0.464803 0.424262
v -0.497302 0.234275 0.387243
v -0.293587 0.234985 0.658324
v 0.238871 0.249804 0.755512
v 0.534754 0.000000 0.623840
v 0.522361 0.255635 0.584112
v 0.252767 0.490483 0.542569
v 0.522361 0.255635 0.584112
v 0.473700 0.451168 0.517272
v -0.131888 -0.258635 -0.610518
v -0.315662 -0.398875 -0.474845
v -0.399069 -0.261546 -0.647720
v -0.111161 0.000000 -0.689542
v -0.399069 -0.261546 -0.647720
v -0.473361 -0.011802 -0.805438
v -0.312361 0.000000 0.707910
v 0.238871 0.249804 0.755512
v -0.293587 0.234985 0.658324
v -0.137851 -0.406935 -0.426419
v -0.131888 -0.258635 -0.610518
v -0.022005 -0.262449 -0.549066
v 0.322769 0.447137 -0.189239
v 0.148807 0.347283 -0.448508
v 0.195740 0.467512 -0.258543
v -0.407600 0.253398 -0.657842
v -0.111161 0.000000 -0.689542
v -0.473361 -0.011802 -0.805438
v -0.315662 0.398875 -0.474845
v -0.131888 0.258635 -0.610518
v -0.407600 0.253398 -0.657842
v 0.713680 -0.261750 0.200136
v 0.473700 -0.451168 0.517272
v 0.509722 -0.474826 0.186781
v 0.471222 -0.239261 -0.243173
v 0.509722 -0.474826 0.186781
v 0.322769 -0.447137 -0.189239
v 0.713680 0.261750 0.200136
v 0.575841 -0.023550 -0.232340
v 0.509832 0.236268 -0.248207
v 0.522361 0.255635 0.584112
v 0.740569 -0.000000 0.210949
v 0.713680 0.261750 0.200136
v 0.252767 0.490483 0.542569
v 0.509722 0.474826 0.186781
v 0.222154 0.535607 0.158943
v 0.222154 0.535607 0.158943
v 0.322769 0.447137 -0.189239
v 0.195740 0.467512 -0.258543
v -0.497302 0.234275 0.387243
v -0.448503 0.459071 -0.002692
v -0.580886 0.223027 -0.049439
v -0.580886 0.223027 -0.049439
v -0.315662 0.398875 -0.474845
v -0.407600 0.253398 -0.657842
v -0.573664 -0.233047 -0.043397
v -0.315662 -0.398875 -0.474845
v -0.448503 -0.459071 -0.002692
v -0.600034 -0.097377 -0.276258
v -0.740569 -0.033156 -0.396521
v -0.589502 -0.034978 -0.463948
v -0.497302 -0.234275 0.387243
v -0.531477 0.000000 0.421861
v -0.633947 -0.009608 -0.025589
v -0.600034 -0.097377 -0.276258
v -0.589502 -0.034978 -0.463948
v -0.399069 -0.261546 -0.647720
v -0.740569 -0.033156 -0.396521
vt 0.253119 0.832801
vt 0.275895 0.876077
vt 0.247864 0.866097
vt 0.156822 0.815874
vt 0.128467 0.870013
vt 0.126351 0.818951
vt 0.126351 0.818951
vt 0.088201 0.754826
vt 0.137908 0.783525
vt 0.779655 0.861198
vt 0.790678 0.811071
vt 0.814378 0.855470
vt 0.098762 0.832015
vt 0.057076 0.787237
vt 0.077521 0.780584
vt 0.091817 0.882023
vt 0.026401 0.874169
vt 0.074244 0.843282
vt 0.074244 0.843282
vt 0.016166 0.815248
vt 0.057076 0.787237
vt 0.662156 0.851140
vt 0.655529 0.790999
vt 0.689352 0.808342
vt 0.652322 0.883728
vt 0.630343 0.845492
vt 0.662156 0.851140
vt 0.716249 0.871324
vt 0.747992 0.820080
vt 0.747898 0.867108
vt 0.747898 0.867108
vt 0.745464 0.931118
vt 0.716249 0.871324
vt 0.807252 0.903913
vt 0.814378 0.855470
vt 0.824620 0.911771
vt 0.238680 0.816702
vt 0.174018 0.828164
vt 0.191012 0.778333
vt 0.223123 0.856239
vt 0.166661 0.887126
vt 0.174018 0.828164
vt 0.046470 0.923589
vt 0.118662 0.906749
vt 0.075636 0.954900
vt 0.287137 0.773935
vt 0.217681 0.745582
vt 0.239286 0.722664
vt 0.118662 0.906749
vt 0.157672 0.876137
vt 0.143856 0.921467
vt 0.275629 0.825646
vt 0.238680 0.816702
vt 0.263372 0.790235
vt 0.747992 0.820080
vt 0.790678 0.811071
vt 0.769545 0.828704
vt 0.717852 0.812425
vt 0.759976 0.782064
vt 0.747992 0.820080
vt 0.104860 0.864997
vt 0.074244 0.843282
vt 0.098762 0.832015
vt 0.304092 0.817423
vt 0.263372 0.790235
vt 0.287137 0.773935
vt 0.263372 0.790235
vt 0.191012 0.778333
vt 0.217681 0.745582
vt 0.091817 0.882023
vt 0.128467 0.870013
vt 0.118662 0.906749
vt 0.643158 0.930378
vt 0.600788 0.900424
vt 0.630842 0.892502
vt 0.673602 0.901117
vt 0.630842 0.892502
vt 0.652322 0.883728
vt 0.208915 0.942353
vt 0.229739 0.919049
vt 0.240961 0.943636
vt 0.205205 0.977371
vt 0.240961 0.943636
vt 0.257051 0.978533
vt 0.143856 0.921467
vt 0.075636 0.954900
vt 0.118662 0.906749
vt 0.208812 0.913274
vt 0.208915 0.942353
vt 0.193285 0.937522
vt 0.689352 0.808342
vt 0.708984 0.769695
vt 0.706737 0.800469
vt 0.088201 0.754826
vt 0.051399 0.723716
vt 0.102803 0.719416
vt 0.077521 0.780584
vt 0.056032 0.758401
vt 0.088201 0.754826
vt 0.747898 0.867108
vt 0.769545 0.828704
vt 0.779655 0.861198
vt 0.777444 0.921291
vt 0.779655 0.861198
vt 0.807252 0.903913
vt 0.630343 0.845492
vt 0.621016 0.778827
vt 0.655529 0.790999
vt 0.630842 0.892502
vt 0.598641 0.841629
vt 0.630343 0.845492
vt 0.673602 0.901117
vt 0.662156 0.851140
vt 0.696838 0.856676
vt 0.696838 0.856676
vt 0.689352 0.808342
vt 0.706737 0.800469
vt 0.128467 0.870013
vt 0.098762 0.832015
vt 0.126351 0.818951
vt 0.126351 0.818951
vt 0.077521 0.780584
vt 0.088201 0.754826
vt 0.275895 0.876077
vt 0.229739 0.919049
vt 0.247864 0.866097
vt 0.287192 0.909827
vt 0.305552 0.929623
vt 0.284708 0.937394
vt 0.275629 0.825646
vt 0.304092 0.817423
vt 0.305552 0.877410
vt 0.287192 0.909827
vt 0.284708 0.937394
vt 0.240961 0.943636
vt 0.157672 0.763050
vn -0.611641 -0.704572 0.359824
vn -0.903642 -0.427970 -0.016511
vn -0.616630 -0.784452 -0.066348
vn -0.986048 -0.013276 0.165933
vn -0.840954 0.367786 0.396901
vn -0.913339 0.406420 -0.025209
vn -0.913339 0.406420 -0.025209
vn -0.409602 0.627939 -0.661754
vn -0.822226 0.546543 -0.158854
vn 0.519466 -0.848096 -0.104345
vn 0.078403 -0.863444 0.498314
vn 0.087926 -0.995965 -0.017945
vn -0.614873 0.785995 -0.064365
vn 0.054233 0.891991 -0.448788
vn -0.278304 0.880356 -0.384084
vn -0.307268 0.856217 0.415306
vn 0.087926 0.995965 -0.017945
vn -0.151466 0.987081 -0.052249
vn -0.151466 0.987081 -0.052249
vn 0.206008 0.898803 -0.386928
vn 0.054233 0.891991 -0.448788
vn 0.513083 0.853643 -0.089664
vn 0.788549 0.554774 -0.265362
vn 0.442986 0.812300 -0.379384
vn 0.466826 0.704786 0.534182
vn 0.926009 0.377460 -0.005585
vn 0.513083 0.853643 -0.089664
vn 0.998055 0.001282 0.062319
vn 0.681317 -0.295367 0.669750
vn 0.922554 -0.385422 -0.018525
vn 0.922554 -0.385422 -0.018525
vn 0.974494 -0.063265 -0.215310
vn 0.998055 0.001282 0.062319
vn 0.476529 -0.787827 -0.390190
vn 0.087926 -0.995965 -0.017945
vn 0.206008 -0.898803 -0.386928
vn -0.307268 -0.856217 0.415306
vn 0.087926 -0.995965 -0.017945
vn 0.078403 -0.863444 0.498314
vn -0.151466 -0.987081 -0.052249
vn 0.206008 -0.898803 -0.386928
vn 0.087926 -0.995965 -0.017945
vn 0.078403 0.863444 0.498314
vn -0.472932 0.446319 0.759694
vn 0.152322 0.420342 0.894489
vn -0.515043 0.000000 0.857164
vn 0.152322 -0.420342 0.894489
vn 0.191994 0.000000 0.981396
vn -0.472932 0.446319 0.759694
vn -0.902356 0.001007 0.430990
vn -0.515043 0.000000 0.857164
vn -0.840106 -0.368796 0.397759
vn -0.307268 -0.856217 0.415306
vn -0.472932 -0.446319 0.759694
vn 0.681317 -0.295367 0.669750
vn 0.078403 -0.863444 0.498314
vn 0.466826 -0.704786 0.534182
vn 0.728088 0.000000 0.685484
vn 0.152322 -0.420342 0.894489
vn 0.681317 -0.295367 0.669750
vn -0.612074 0.704366 0.359492
vn -0.151466 0.987081 -0.052249
vn -0.614873 0.785995 -0.064365
vn -0.902356 0.001007 0.430990
vn -0.472932 -0.446319 0.759694
vn -0.515043 0.000000 0.857164
vn -0.472932 -0.446319 0.759694
vn 0.078403 -0.863444 0.498314
vn 0.152322 -0.420342 0.894489
vn -0.307268 0.856217 0.415306
vn -0.840954 0.367786 0.396901
vn -0.472932 0.446319 0.759694
vn 0.152322 0.420342 0.894489
vn 0.728088 0.000000 0.685484
vn 0.681317 0.295367 0.669750
vn 0.078403 0.863444 0.498314
vn 0.681317 0.295367 0.669750
vn 0.466826 0.704786 0.534182
vn 0.263534 -0.534880 -0.802778
vn -0.281629 -0.878978 -0.384814
vn -0.376664 -0.659636 -0.650388
vn -0.438893 -0.001343 -0.898538
vn -0.376664 -0.659636 -0.650388
vn -0.443477 -0.021943 -0.896017
vn -0.515043 0.000000 0.857164
vn 0.152322 0.420342 0.894489
vn -0.472932 0.446319 0.759694
vn 0.054233 -0.891991 -0.448788
vn 0.263534 -0.534880 -0.802778
vn -0.118626 -0.809570 -0.574912
vn 0.442986 0.812300 -0.379384
vn 0.134955 0.918223 -0.372362
vn 0.206008 0.898803 -0.386928
vn -0.409602 0.627939 -0.661754
vn -0.438893 -0.001343 -0.898538
vn -0.443477 -0.021943 -0.896017
vn -0.278304 0.880356 -0.384084
vn 0.268382 0.537648 -0.799316
vn -0.409602 0.627939 -0.661754
vn 0.922554 -0.385422 -0.018525
vn 0.466826 -0.704786 0.534182
vn 0.519466 -0.848096 -0.104345
vn 0.732726 -0.634761 -0.245341
vn 0.519466 -0.848096 -0.104345
vn 0.476529 -0.787827 -0.390190
vn 0.926009 0.377460 -0.005585
vn 0.974494 -0.063265 -0.215310
vn 0.788549 0.554774 -0.265362
vn 0.681317 0.295367 0.669750
vn 0.998055 0.001282 0.062319
vn 0.926009 0.377460 -0.005585
vn 0.078403 0.863444 0.498314
vn 0.513083 0.853643 -0.089664
vn 0.087926 0.995965 -0.017945
vn 0.087926 0.995965 -0.017945
vn 0.442986 0.812300 -0.379384
vn 0.206008 0.898803 -0.386928
vn -0.840954 0.367786 0.396901
vn -0.614873 0.785995 -0.064365
vn -0.913339 0.406420 -0.025209
vn -0.913339 0.406420 -0.025209
vn -0.278304 0.880356 -0.384084
vn -0.409602 0.627939 -0.661754
vn -0.903642 -0.427970 -0.016511
vn -0.281629 -0.878978 -0.384814
vn -0.616630 -0.784452 -0.066348
vn -0.753094 -0.650366 -0.099371
vn -0.909971 -0.050235 -0.411617
vn -0.907943 -0.083928 -0.410604
vn -0.840106 -0.368796 0.397759
vn -0.902356 0.001007 0.430990
vn -0.986048 -0.013276 0.165933
vn -0.753094 -0.650366 -0.099371
vn -0.907943 -0.083928 -0.410604
vn -0.376664 -0.659636 -0.650388
vn -0.909971 -0.050235 -0.411617
usemtl head_mat
f 1/1/1 2/2/2 3/3/3
f 4/4/4 5/5/5 6/6/6
f 7/7/7 8/8/8 9/9/9
f 10/10/10 11/11/11 12/12/12
f 13/13/13 14/14/14 15/15/15
f 16/16/16 17/17/17 18/18/18
f 19/19/19 20/20/20 21/21/21
f 22/22/22 23/23/23 24/24/24
f 25/25/25 26/26/26 27/27/27
f 28/28/28 29/29/29 30/30/30
f 31/31/31 32/32/32 33/33/33
f 34/34/34 35/35/35 36/36/36
f 37/37/37 38/38/38 39/39/39
f 40/40/40 41/41/41 42/42/42
f 43/43/43 44/44/44 45/45/45
f 46/46/46 47/47/47 48/48/48
f 49/49/49 50/50/50 51/51/51
f 52/52/52 53/53/53 54/54/54
f 55/55/55 56/56/56 57/57/57
f 58/58/58 59/59/59 60/60/60
f 61/61/61 62/62/62 63/63/63
f 64/64/64 65/65/65 66/66/66
f 67/67/67 68/68/68 69/69/69
f 70/70/70 71/71/71 72/72/72
f 73/73/73 74/74/74 75/75/75
f 76/76/76 77/77/77 78/78/78
f 79/79/79 80/80/80 81/81/81
f 82/82/82 83/83/83 84/84/84
f 85/85/85 86/86/86 87/87/87
f 88/88/88 89/89/89 90/90/90
f 91/91/91 92/92/92 93/93/93
f 94/94/94 95/95/95 96/96/96
f 97/97/97 98/98/98 99/99/99
f 100/100/100 101/101/101 102/102/102
f 103/103/103 104/104/104 105/105/105
f 106/106/106 107/107/107 108/108/108
f 109/109/109 110/110/110 111/111/111
f 112/112/112 113/113/113 114/114/114
f 115/115/115 116/116/116 117/117/117
f 118/118/118 119/119/119 120/120/120
f 121/121/121 122/122/122 123/123/123
f 124/124/124 125/125/125 126/126/126
f 127/127/127 128/128/128 129/129/129
f 130/130/130 131/131/131 132/132/132
f 133/133/133 134/134/134 135/135/135
f 136/136/136 137/137/137 138/138/138
f 139/139/139 140/140/140 141/141/141
f 142/142/142 143/143/143 144/144/144
f 145/145/145 146/146/146 147/147/147
f 148/148/148 149/149/149 150/150/150
f 151/151/151 152/152/152 153/153/153
f 154/154/154 155/155/155 156/156/156
f 157/157/157 158/158/158 159/159/159
f 160/160/160 161/161/161 162/162/162
f 163/163/163 164/164/164 165/165/165
f 166/166/166 167/167/167 168/168/168
f 169/169/169 170/170/170 171/171/171
f 172/172/172 173/173/173 174/174/174
f 175/175/175 176/176/176 177/177/177
f 178/178/178 179/179/179 180/180/180
f 181/181/181 182/182/182 183/183/183
f 184/184/184 185/185/185 186/186/186
f 187/187/187 188/188/188 189/189/189
f 190/190/190 191/191/191 192/192/192
f 193/193/193 194/194/194 195/195/195
f 196/196/196 197/197/197 198/198/198
f 199/199/199 200/200/200 201/201/201
f 202/202/202 203/203/203 204/204/204
f 205/205/205 206/206/206 207/207/207
f 208/208/208 209/209/209 210/210/210
f 211/211/211 212/212/212 213/213/213
f 214/214/214 215/215/215 216/216/216
f 217/217/217 218/218/218 219/219/219
f 220/220/220 221/221/221 222/222/222
f 223/223/223 224/224/224 225/225/225
f 226/226/226 227/227/227 228/228/228
f 229/229/229 230/230/230 231/231/231
f 232/232/232 233/233/233 234/234/234
f 235/235/235 236/236/236 237/237/237
f 238/238/238 239/239/239 240/240/240
f 241/241/241 242/242/242 243/243/243
f 244/244/244 245/245/245 246/246/246
f 247/247/247 248/248/248 249/249/249
f 250/250/250 251/251/251 252/252/252
f 253/253/253 254/254/254 255/255/255
f 256/256/256 257/257/257 258/258/258
f 259/259/259 260/260/260 261/261/261
f 262/262/262 263/263/263 264/264/264
f 265/265/265 266/266/266 267/267/267
f 268/268/268 269/269/269 270/270/270
f 271/271/271 272/272/272 273/273/273
f 274/274/274 275/275/275 276/276/276
f 277/277/277 278/278/278 279/279/279
f 280/280/280 281/281/281 282/282/282
f 283/283/283 284/284/284 285/285/285
f 286/286/286 287/287/287 288/288/288
f 289/289/289 290/290/290 291/291/291
f 292/292/292 293/293/293 294/294/294
f 295/295/295 296/296/296 297/297/297
f 298/298/298 299/299/299 300/300/300
f 301/301/301 302/302/302 303/303/303
f 304/304/304 305/305/305 306/306/306
f 307/307/307 308/308/308 309/309/309
f 310/310/310 311/311/311 312/312/312
f 313/313/313 314/314/314 315/315/315
f 316/316/316 317/317/317 318/318/318
f 319/319/319 320/320/320 321/321/321
f 322/322/322 323/323/323 324/324/324
f 325/325/325 326/326/326 327/327/327
f 328/328/328 329/329/329 330/330/330
f 331/331/331 332/332/332 333/333/333
f 334/334/334 335/335/335 336/336/336
f 337/337/337 338/338/338 339/339/339
f 340/340/340 341/341/341 342/342/342
f 343/343/343 344/344/344 345/345/345
f 346/346/346 347/347/347 348/348/348
f 349/349/349 350/350/350 351/351/351
f 352/352/352 353/353/353 354/354/354
f 355/355/355 356/356/356 357/357/357
f 358/358/358 359/359/359 360/360/360
f 361/361/361 362/362/362 363/363/363
f 364/364/364 365/365/365 366/366/366
f 367/367/367 368/368/368 369/369/369
f 370/370/370 371/371/371 372/372/372
f 373/373/373 374/374/374 375/375/375
f 376/376/376 377/377/377 378/378/378
f 379/379/379 380/380/380 381/381/381
f 382/382/382 383/383/383 384/384/384
f 385/385/385 386/386/386 387/387/387
f 388/388/388 389/389/389 390/390/390
f 391/391/391 392/392/392 393/393/393
f 394/394/394 395/395/395 396/396/396
f 397/397/397 398/398/398 399/399/399
f 400/400/400 401/401/401 402/402/402
f 403/403/403 404/404/404 405/405/405
f 406/406/406 407/407/407 408/408/408
