mtllib terror_head_10.mtl
g Cube_044
v 0.630051 -1.470773 1.077601
v 0.262855 -0.772554 0.943146
v 0.422366 -1.367486 1.361562
v 0.262855 -0.772554 0.943146
v -0.116049 -0.309185 0.276116
v 0.019230 -0.963173 0.763059
v 0.153035 -1.543614 1.198024
v 0.262855 -0.772554 0.943146
v 0.019230 -0.963173 0.763059
v 0.292134 -1.586039 0.881951
v 0.019230 -0.963173 0.763059
v 0.233261 -1.099545 0.492136
v 0.292134 -1.586039 0.881951
v 0.479183 -0.903947 0.687403
v 0.630051 -1.470773 1.077601
v 0.099294 -0.453295 0.016477
v -0.216941 -0.154789 0.163055
v 0.068828 -0.338799 -0.158618
v 0.233261 -1.099545 0.492136
v -0.116049 -0.309185 0.276116
v 0.099294 -0.453295 0.016477
v 0.479183 -0.903947 0.687403
v 0.099294 -0.453295 0.016477
v 0.343866 -0.249548 0.201536
v 0.479183 -0.903947 0.687403
v 0.126763 -0.113812 0.454670
v 0.262855 -0.772554 0.943146
v 0.087905 0.088422 0.378262
v -0.274809 0.735925 -0.741916
v -0.436315 0.824784 -0.581009
v 0.099294 -0.453295 0.016477
v 0.362215 -0.079757 0.069068
v 0.343866 -0.249548 0.201536
v 0.126763 -0.113812 0.454670
v 0.362215 -0.079757 0.069068
v 0.087905 0.088422 0.378262
v 0.126763 -0.113812 0.454670
v -0.216941 -0.154789 0.163055
v -0.116049 -0.309185 0.276116
v -0.436315 0.824784 -0.581009
v -0.630051 1.030643 -0.781565
v -0.612952 0.692655 -0.686015
v -0.216941 -0.154789 0.163055
v -0.436315 0.824784 -0.581009
v -0.612952 0.692655 -0.686015
v -0.216941 -0.154789 0.163055
v -0.451170 0.599251 -0.853031
v 0.068828 -0.338799 -0.158618
v 0.068828 -0.338799 -0.158618
v -0.274809 0.735925 -0.741916
v 0.362215 -0.079757 0.069068
v -0.630051 1.030643 -0.781565
v -0.372472 1.218214 -1.226646
v -0.377241 0.884684 -1.042555
v -0.612952 0.692655 -0.686015
v -0.377241 0.884684 -1.042555
v -0.451170 0.599251 -0.853031
v -0.274809 0.735925 -0.741916
v -0.377241 0.884684 -1.042555
v -0.220960 0.954892 -0.953771
v -0.274809 0.735925 -0.741916
v -0.473338 1.093748 -0.702329
v -0.436315 0.824784 -0.581009
v -0.372472 1.218214 -1.226646
v -0.613268 1.586039 -1.188656
v -0.445781 1.489341 -1.361562
v -0.377241 0.884684 -1.042555
v -0.254402 1.242493 -1.155634
vt 0.076437 0.461772
vt 0.055280 0.502863
vt 0.055364 0.461217
vt 0.055280 0.502863
vt 0.035332 0.549349
vt 0.035136 0.502861
vt 0.034923 0.461743
vt 0.055280 0.502863
vt 0.035136 0.502861
vt 0.566954 0.263489
vt 0.550678 0.224940
vt 0.573225 0.226041
vt 0.098619 0.469168
vt 0.075072 0.502937
vt 0.076437 0.461772
vt 0.577680 0.176603
vt 0.553921 0.161531
vt 0.582496 0.164551
vt 0.573225 0.226041
vt 0.555324 0.174734
vt 0.577680 0.176603
vt 0.075072 0.502937
vt 0.095356 0.548895
vt 0.075219 0.549491
vt 0.075072 0.502937
vt 0.055533 0.549078
vt 0.055280 0.502863
vt 0.055648 0.560584
vt 0.071402 0.637524
vt 0.054058 0.637628
vt 0.095356 0.548895
vt 0.075257 0.559603
vt 0.075219 0.549491
vt 0.055533 0.549078
vt 0.075257 0.559603
vt 0.055648 0.560584
vt 0.055533 0.549078
vt 0.033189 0.561075
vt 0.035332 0.549349
vt 0.054058 0.637628
vt 0.043073 0.656099
vt 0.038570 0.637541
vt 0.033189 0.561075
vt 0.054058 0.637628
vt 0.038570 0.637541
vt 0.553921 0.161531
vt 0.577887 0.086126
vt 0.582496 0.164551
vt 0.097686 0.561070
vt 0.071402 0.637524
vt 0.075257 0.559603
vt 0.560500 0.062703
vt 0.587372 0.042125
vt 0.584534 0.065514
vt 0.562550 0.084331
vt 0.584534 0.065514
vt 0.577887 0.086126
vt 0.071402 0.637524
vt 0.081797 0.657762
vt 0.071745 0.657001
vt 0.071402 0.637524
vt 0.052932 0.655734
vt 0.054058 0.637628
vt 0.587372 0.042125
vt 0.570045 0.021029
vt 0.585985 0.022899
vt 0.081797 0.657762
vt 0.070175 0.672628
vn 0.969717 0.201122 -0.138557
vn 0.045382 0.601133 0.797859
vn 0.159341 0.495023 0.854144
vn 0.045382 0.601133 0.797859
vn -0.942638 -0.223826 0.247661
vn -0.984423 -0.085270 0.153755
vn -0.939443 0.259200 0.224194
vn 0.045382 0.601133 0.797859
vn -0.984423 -0.085270 0.153755
vn -0.201093 -0.313007 -0.928218
vn -0.984423 -0.085270 0.153755
vn -0.032015 -0.613465 -0.789072
vn -0.201093 -0.313007 -0.928218
vn 0.985552 0.098577 -0.137732
vn 0.969717 0.201122 -0.138557
vn -0.016541 -0.739784 -0.672642
vn -0.926245 -0.238260 0.292065
vn 0.062778 -0.710123 -0.701273
vn -0.032015 -0.613465 -0.789072
vn -0.942638 -0.223826 0.247661
vn -0.016541 -0.739784 -0.672642
vn 0.985552 0.098577 -0.137732
vn -0.016541 -0.739784 -0.672642
vn 0.998821 0.001556 -0.048525
vn 0.985552 0.098577 -0.137732
vn 0.087072 0.474729 0.875814
vn 0.045382 0.601133 0.797859
vn 0.088537 0.611975 0.785905
vn 0.978884 0.116489 -0.167974
vn -0.000794 0.582802 0.812614
vn -0.016541 -0.739784 -0.672642
vn 0.977674 0.160987 -0.135046
vn 0.998821 0.001556 -0.048525
vn 0.087072 0.474729 0.875814
vn 0.977674 0.160987 -0.135046
vn 0.088537 0.611975 0.785905
vn 0.087072 0.474729 0.875814
vn -0.926245 -0.238260 0.292065
vn -0.942638 -0.223826 0.247661
vn -0.000794 0.582802 0.812614
vn -0.981871 0.053836 0.181743
vn -0.985296 -0.157782 0.065554
vn -0.926245 -0.238260 0.292065
vn -0.000794 0.582802 0.812614
vn -0.985296 -0.157782 0.065554
vn -0.926245 -0.238260 0.292065
vn -0.193673 -0.576440 -0.793856
vn 0.062778 -0.710123 -0.701273
vn 0.062778 -0.710123 -0.701273
vn 0.978884 0.116489 -0.167974
vn 0.977674 0.160987 -0.135046
vn -0.981871 0.053836 0.181743
vn -0.092015 -0.449608 -0.888474
vn -0.062962 -0.550603 -0.832390
vn -0.985296 -0.157782 0.065554
vn -0.062962 -0.550603 -0.832390
vn -0.193673 -0.576440 -0.793856
vn 0.978884 0.116489 -0.167974
vn -0.062962 -0.550603 -0.832390
vn 0.990140 -0.113410 -0.082219
vn 0.978884 0.116489 -0.167974
vn 0.142373 0.486846 0.861807
vn -0.000794 0.582802 0.812614
vn -0.092015 -0.449608 -0.888474
vn -0.774526 0.545843 -0.319632
vn -0.141303 0.150031 -0.978532
vn -0.062962 -0.550603 -0.832390
vn 0.965542 0.103278 -0.238875
usemtl head_mat
f 1/1/1 2/2/2 3/3/3
f 4/4/4 5/5/5 6/6/6
f 7/7/7 8/8/8 9/9/9
f 10/10/10 11/11/11 12/12/12
f 13/13/13 14/14/14 15/15/15
f 16/16/16 17/17/17 18/18/18
f 19/19/19 20/20/20 21/21/21
f 22/22/22 23/23/23 24/24/24
f 25/25/25 26/26/26 27/27/27
f 28/28/28 29/29/29 30/30/30
f 31/31/31 32/32/32 33/33/33
f 34/34/34 35/35/35 36/36/36
f 37/37/37 38/38/38 39/39/39
f 40/40/40 41/41/41 42/42/42
f 43/43/43 44/44/44 45/45/45
f 46/46/46 47/47/47 48/48/48
f 49/49/49 50/50/50 51/51/51
f 52/52/52 53/53/53 54/54/54
f 55/55/55 56/56/56 57/57/57
f 58/58/58 59/59/59 60/60/60
f 61/61/61 62/62/62 63/63/63
f 64/64/64 65/65/65 66/66/66
f 67/67/67 68/68/68 69/69/69
f 70/70/70 71/71/71 72/72/72
f 73/73/73 74/74/74 75/75/75
f 76/76/76 77/77/77 78/78/78
f 79/79/79 80/80/80 81/81/81
f 82/82/82 83/83/83 84/84/84
f 85/85/85 86/86/86 87/87/87
f 88/88/88 89/89/89 90/90/90
f 91/91/91 92/92/92 93/93/93
f 94/94/94 95/95/95 96/96/96
f 97/97/97 98/98/98 99/99/99
f 100/100/100 101/101/101 102/102/102
f 103/103/103 104/104/104 105/105/105
f 106/106/106 107/107/107 108/108/108
f 109/109/109 110/110/110 111/111/111
f 112/112/112 113/113/113 114/114/114
f 115/115/115 116/116/116 117/117/117
f 118/118/118 119/119/119 120/120/120
f 121/121/121 122/122/122 123/123/123
f 124/124/124 125/125/125 126/126/126
f 127/127/127 128/128/128 129/129/129
f 130/130/130 131/131/131 132/132/132
f 133/133/133 134/134/134 135/135/135
f 136/136/136 137/137/137 138/138/138
f 139/139/139 140/140/140 141/141/141
f 142/142/142 143/143/143 144/144/144
f 145/145/145 146/146/146 147/147/147
f 148/148/148 149/149/149 150/150/150
f 151/151/151 152/152/152 153/153/153
f 154/154/154 155/155/155 156/156/156
f 157/157/157 158/158/158 159/159/159
f 160/160/160 161/161/161 162/162/162
f 163/163/163 164/164/164 165/165/165
f 166/166/166 167/167/167 168/168/168
f 169/169/169 170/170/170 171/171/171
f 172/172/172 173/173/173 174/174/174
f 175/175/175 176/176/176 177/177/177
f 178/178/178 179/179/179 180/180/180
f 181/181/181 182/182/182 183/183/183
f 184/184/184 185/185/185 186/186/186
f 187/187/187 188/188/188 189/189/189
f 190/190/190 191/191/191 192/192/192
f 193/193/193 194/194/194 195/195/195
f 196/196/196 197/197/197 198/198/198
f 199/199/199 200/200/200 201/201/201
f 202/202/202 203/203/203 204/204/204
