mtllib terror_head_01.mtl
g Cube_015
v -0.602426 -0.236216 0.030160
v -0.668316 -0.047348 -0.053714
v -0.628796 -0.100545 -0.202701
v -0.438391 -0.427432 0.398430
v -0.602426 -0.236216 0.030160
v -0.477265 -0.462240 0.070865
v -0.662709 -0.012777 0.047968
v -0.526064 0.231106 0.460800
v -0.609648 0.219858 0.024118
v -0.609648 0.219858 0.024118
v -0.410429 0.402333 -0.176029
v -0.555461 0.244139 -0.258889
v -0.216645 0.455081 -0.137907
v 0.166978 0.464343 -0.184986
v -0.166613 0.403766 -0.352862
v 0.166978 -0.470680 -0.184986
v -0.216645 -0.461418 -0.137907
v -0.166613 -0.410103 -0.352862
v -0.410429 -0.408670 -0.176028
v -0.533756 -0.503089 -0.450562
v -0.477265 -0.462240 0.070865
v 0.149276 0.536473 -0.005277
v 0.374490 0.505231 -0.475607
v 0.351513 0.457857 0.048012
v -0.526064 0.231106 0.460800
v -0.448059 0.237293 0.719665
v -0.322349 0.231817 0.731881
v 0.668414 -0.003169 0.005495
v 0.631732 -0.302775 -0.506024
v 0.586247 -0.279453 0.020256
v -0.438391 0.421095 0.398430
v -0.243218 0.522356 0.115420
v -0.477265 0.455902 0.070865
v -0.267263 0.461635 0.497819
v -0.448059 0.237293 0.719665
v -0.387692 0.489147 0.463160
v -0.216645 0.455081 -0.137907
v 0.152861 0.591385 -0.534005
v 0.149276 0.536473 -0.005277
v -0.267263 0.461635 0.497819
v -0.526064 0.231106 0.460800
v -0.322349 0.231817 0.731881
v 0.586247 -0.279453 0.020256
v 0.374490 -0.505231 -0.475607
v 0.351513 -0.464195 0.048012
v 0.586247 0.273115 0.020256
v 0.374490 0.505231 -0.475607
v 0.631731 0.302775 -0.506024
v -0.160650 -0.261804 -0.536961
v -0.344424 -0.402043 -0.401288
v -0.427831 -0.264714 -0.574163
v -0.139922 -0.003169 -0.615985
v -0.427831 -0.264714 -0.574163
v -0.502123 -0.014971 -0.731881
v -0.243218 0.522356 0.115420
v -0.387692 0.489147 0.463160
v -0.277267 0.575915 0.092511
v -0.166613 -0.410103 -0.352862
v -0.160650 -0.261804 -0.536961
v -0.050767 -0.265618 -0.475509
v 0.294007 0.443968 -0.115682
v 0.120045 0.344114 -0.374951
v 0.166978 0.464343 -0.184986
v -0.436361 0.250229 -0.584285
v -0.139922 -0.003169 -0.615985
v -0.502123 -0.014971 -0.731881
v -0.344424 0.395706 -0.401288
v -0.160650 0.255466 -0.536961
v -0.436361 0.250229 -0.584285
v -0.216645 -0.461418 -0.137907
v -0.344424 -0.402043 -0.401288
v -0.166613 -0.410103 -0.352862
v 0.668414 -0.003169 0.005495
v 0.631731 0.302775 -0.506024
v 0.721776 -0.000000 -0.522201
v -0.410429 -0.408670 -0.176028
v -0.248146 -0.502189 -0.679353
v -0.460511 -0.444383 -0.721129
v 0.294007 -0.450305 -0.115682
v 0.149276 -0.542810 -0.005277
v 0.166978 -0.470680 -0.184986
v -0.560239 -0.003169 0.495418
v -0.671308 0.236514 0.422591
v -0.526064 0.231106 0.460800
v 0.442461 -0.242430 -0.169616
v 0.351513 -0.464195 0.048012
v 0.294007 -0.450305 -0.115682
v 0.547079 -0.026719 -0.158783
v 0.586247 -0.279453 0.020256
v 0.442461 -0.242430 -0.169616
v -0.526064 -0.237443 0.460800
v -0.575229 -0.485168 0.354241
v -0.671308 -0.276962 0.422591
v 0.149276 -0.542810 -0.005277
v 0.374490 -0.505231 -0.475607
v 0.152861 -0.591385 -0.534005
v -0.526064 -0.237443 0.460800
v -0.708760 -0.020224 0.460529
v -0.560239 -0.003169 0.495418
v 0.481070 0.233100 -0.174650
v 0.668414 -0.003169 0.005495
v 0.547079 -0.026719 -0.158783
v 0.351513 0.457857 0.048012
v 0.481070 0.233100 -0.174650
v 0.294007 0.443968 -0.115682
v -0.477265 -0.462240 0.070865
v -0.575229 -0.485168 0.354241
v -0.438391 -0.427432 0.398430
v 0.149276 0.536473 -0.005277
v 0.294007 0.443968 -0.115682
v 0.166978 0.464343 -0.184986
v -0.216645 -0.461418 -0.137907
v 0.152861 -0.591385 -0.534005
v -0.248146 -0.502189 -0.679353
v -0.526064 0.231106 0.460800
v -0.477265 0.455902 0.070865
v -0.609648 0.219858 0.024118
v -0.344424 0.395706 -0.401288
v -0.216645 0.455081 -0.137907
v -0.166613 0.403766 -0.352862
v -0.477265 0.455902 0.070865
v -0.216645 0.455081 -0.137907
v -0.410429 0.402333 -0.176029
v -0.555461 0.244139 -0.258889
v -0.344424 0.395706 -0.401288
v -0.436361 0.250229 -0.584285
v -0.624571 -0.009550 -0.336678
v -0.555461 0.244139 -0.258889
v -0.436361 0.250229 -0.584285
v -0.627889 -0.055995 -0.337734
v -0.769331 -0.036324 -0.254535
v -0.618264 -0.038147 -0.390391
v -0.526064 -0.237443 0.460800
v -0.560239 -0.003169 0.495418
v -0.662709 -0.012777 0.047968
v -0.548737 -0.278834 -0.252531
v -0.627889 -0.055995 -0.337734
v -0.618264 -0.038147 -0.390391
v -0.344424 -0.402043 -0.401288
v -0.548737 -0.278834 -0.252531
v -0.427831 -0.264714 -0.574163
v -0.410429 -0.408670 -0.176028
v -0.602426 -0.236216 0.030160
v -0.548737 -0.278834 -0.252531
v -0.626718 0.057499 -0.208776
v -0.609648 0.219858 0.024118
v -0.555461 0.244139 -0.258889
v -0.769331 -0.036324 -0.254535
v -0.693030 -0.033206 -0.135860
v -0.626718 0.057499 -0.208776
v -0.693030 -0.033206 -0.135860
v -0.669499 0.014426 -0.054632
v -0.626718 0.057499 -0.208776
v -0.693030 -0.033206 -0.135860
v -0.668316 -0.047348 -0.053714
v -0.662709 -0.012777 0.047968
v -0.624571 -0.009550 -0.336678
v -0.769331 -0.036324 -0.254535
v -0.626718 0.057499 -0.208776
v -0.693030 -0.033206 -0.135860
v -0.769331 -0.036324 -0.254535
v -0.628796 -0.100545 -0.202701
v -0.216645 0.455081 -0.137907
v -0.277267 0.575915 0.092511
v -0.248146 0.502189 -0.679353
v 0.120045 -0.350451 -0.374951
v 0.294007 -0.450305 -0.115682
v 0.166978 -0.470680 -0.184986
v -0.050767 0.259280 -0.475509
v -0.160650 0.255466 -0.536961
v -0.166613 0.403766 -0.352862
v -0.139922 -0.003169 -0.615985
v -0.050767 -0.265618 -0.475509
v -0.160650 -0.261804 -0.536961
v -0.050767 0.259280 -0.475509
v -0.139922 -0.003169 -0.615985
v -0.160650 0.255466 -0.536961
v 0.120045 -0.350451 -0.374951
v 0.539888 -0.244278 -0.649230
v 0.442461 -0.242430 -0.169616
v 0.516349 -0.520355 0.251326
v 0.234756 -0.537513 0.641227
v 0.201208 -0.586963 0.220818
v -0.387692 0.489147 0.463160
v 0.201208 0.586963 0.220818
v -0.277267 0.575915 0.092511
v 0.201208 0.586963 0.220818
v 0.374490 0.505231 -0.475607
v 0.152861 0.591385 -0.534005
v 0.739864 0.286848 0.265961
v 0.721776 -0.000000 -0.522201
v 0.631731 0.302775 -0.506024
v 0.476873 0.494428 0.613506
v 0.739864 0.286848 0.265961
v 0.516349 0.520355 0.251326
v 0.769331 -0.000000 0.277811
v 0.530200 -0.280147 0.686755
v 0.739864 -0.286848 0.265961
v 0.631732 -0.302775 -0.506024
v 0.516349 -0.520355 0.251326
v 0.374490 -0.505231 -0.475607
v -0.303618 -0.509371 0.511577
vt 0.316456 0.856072
vt 0.339471 0.870251
vt 0.327398 0.888763
vt 0.294395 0.814155
vt 0.316456 0.856072
vt 0.289306 0.846405
vt 0.160817 0.819462
vt 0.133353 0.871901
vt 0.131303 0.822442
vt 0.131303 0.822442
vt 0.095386 0.808625
vt 0.116488 0.792285
vt 0.072945 0.817033
vt 0.024578 0.818856
vt 0.064203 0.791725
vt 0.210653 0.866774
vt 0.259015 0.866285
vt 0.251479 0.892101
vt 0.403743 0.648657
vt 0.413961 0.623225
vt 0.413961 0.668936
vt 0.353225 0.673052
vt 0.395373 0.689907
vt 0.349700 0.692143
vt 0.133353 0.871901
vt 0.123855 0.907484
vt 0.123855 0.907484
vt 0.417609 0.604019
vt 0.463052 0.628480
vt 0.417111 0.629093
vt 0.110486 0.867043
vt 0.080832 0.846009
vt 0.104580 0.835096
vt 0.097854 0.883534
vt 0.123855 0.907484
vt 0.097854 0.883534
vt 0.448059 0.700345
vt 0.420395 0.740225
vt 0.414009 0.694478
vt 0.097854 0.883534
vt 0.133353 0.871901
vt 0.123855 0.907484
vt 0.417111 0.629093
vt 0.459653 0.656844
vt 0.414009 0.654975
vt 0.352815 0.718024
vt 0.395373 0.689907
vt 0.398787 0.718269
vt 0.251580 0.920267
vt 0.271750 0.897695
vt 0.282620 0.921510
vt 0.247986 0.954185
vt 0.282620 0.921510
vt 0.298204 0.955310
vt 0.080832 0.846009
vt 0.097854 0.883534
vt 0.080832 0.846009
vt 0.251479 0.892101
vt 0.251580 0.920267
vt 0.236441 0.915588
vt 0.797540 0.802418
vt 0.816556 0.764985
vt 0.814380 0.794792
vt 0.094351 0.760331
vt 0.058705 0.730198
vt 0.108494 0.726033
vt 0.084006 0.785280
vt 0.063192 0.763794
vt 0.094351 0.760331
vt 0.259015 0.866285
vt 0.271750 0.897695
vt 0.251479 0.892101
vt 0.353225 0.743100
vt 0.398787 0.718269
vt 0.399236 0.745749
vt 0.403743 0.648657
vt 0.384047 0.606352
vt 0.402763 0.601001
vt 0.911738 0.894988
vt 0.930638 0.877271
vt 0.928561 0.902599
vt 0.161641 0.877833
vt 0.133353 0.871901
vt 0.133353 0.871901
vt 0.882867 0.911820
vt 0.902428 0.875672
vt 0.911738 0.894988
vt 0.851891 0.921339
vt 0.868402 0.885703
vt 0.882867 0.911820
vt 0.316198 0.807225
vt 0.294395 0.814155
vt 0.316198 0.807225
vt 0.417609 0.674052
vt 0.459653 0.656844
vt 0.463597 0.677751
vt 0.316198 0.807225
vt 0.343768 0.799260
vt 0.343768 0.799260
vt 0.764779 0.785620
vt 0.720270 0.798601
vt 0.731351 0.773830
vt 0.788467 0.821825
vt 0.764779 0.785620
vt 0.797540 0.802418
vt 0.289306 0.846405
vt 0.294395 0.814155
vt 0.294395 0.814155
vt 0.816556 0.820032
vt 0.797540 0.802418
vt 0.814380 0.794792
vt 0.386665 0.653539
vt 0.349700 0.622289
vt 0.384047 0.606352
vt 0.133353 0.871901
vt 0.104580 0.835096
vt 0.131303 0.822442
vt 0.084006 0.785280
vt 0.072945 0.817033
vt 0.064203 0.791725
vt 0.104580 0.835096
vt 0.072945 0.817033
vt 0.095386 0.808625
vt 0.116488 0.792285
vt 0.084006 0.785280
vt 0.094351 0.760331
vt 0.142410 0.768651
vt 0.116488 0.792285
vt 0.094351 0.760331
vt 0.326250 0.908217
vt 0.345182 0.907936
vt 0.324992 0.915464
vt 0.316198 0.807225
vt 0.343768 0.799260
vt 0.345182 0.857363
vt 0.301910 0.887072
vt 0.326250 0.908217
vt 0.324992 0.915464
vt 0.271750 0.897695
vt 0.301910 0.887072
vt 0.282620 0.921510
vt 0.282026 0.873463
vt 0.316456 0.856072
vt 0.301910 0.887072
vt 0.142497 0.788130
vt 0.131303 0.822442
vt 0.116488 0.792285
vt 0.161641 0.768297
vt 0.158123 0.789211
vt 0.142497 0.788130
vt 0.158123 0.789211
vt 0.154825 0.806878
vt 0.142497 0.788130
vt 0.340213 0.887382
vt 0.339471 0.870251
vt 0.345182 0.857363
vt 0.142410 0.768651
vt 0.161641 0.768297
vt 0.142497 0.788130
vt 0.340213 0.887382
vt 0.345182 0.907936
vt 0.327398 0.888763
vt 0.448059 0.700345
vt 0.457709 0.679233
vt 0.457709 0.746655
vt 0.930638 0.932528
vt 0.911738 0.894988
vt 0.928561 0.902599
vt 0.048290 0.768949
vt 0.063192 0.763794
vt 0.064203 0.791725
vt 0.247986 0.954185
vt 0.236441 0.915588
vt 0.251580 0.920267
vt 0.048290 0.768949
vt 0.058705 0.730198
vt 0.063192 0.763794
vt 0.896824 0.683114
vt 0.940588 0.641482
vt 0.940797 0.699151
vt 0.885008 0.853615
vt 0.895685 0.805061
vt 0.918640 0.848066
vt 0.097854 0.883534
vt 0.034492 0.875927
vt 0.080832 0.846009
vt 0.804792 0.849235
vt 0.788467 0.821825
vt 0.816556 0.820032
vt 0.740385 0.838401
vt 0.720270 0.798601
vt 0.754274 0.811724
vt 0.761674 0.875437
vt 0.740385 0.838401
vt 0.771199 0.843872
vt 0.823593 0.863422
vt 0.854339 0.813787
vt 0.854248 0.859339
vt 0.868402 0.885703
vt 0.885008 0.853615
vt 0.902428 0.875672
vt 0.280410 0.798562
vn -0.904436 -0.426445 0.011811
vn -0.903187 -0.418511 0.095403
vn -0.787864 -0.611797 -0.070531
vn -0.782703 0.326650 -0.529788
vn -0.904436 -0.426445 0.011811
vn -0.899714 0.430538 -0.071782
vn -0.985543 -0.013062 0.168921
vn -0.625713 0.779807 -0.019594
vn -0.913539 0.406733 -0.003723
vn -0.913539 0.406733 -0.003723
vn -0.503471 0.839668 -0.203653
vn -0.824683 0.529138 -0.199777
vn -0.779827 0.482326 -0.399039
vn 0.210794 0.865484 -0.454426
vn 0.076114 0.884533 -0.460227
vn 0.210794 -0.865484 -0.454426
vn 0.473013 -0.002564 -0.881052
vn 0.076114 -0.884533 -0.460227
vn -0.973028 0.039705 -0.227242
vn -0.947105 -0.283127 -0.151101
vn -0.899714 0.430538 -0.071782
vn 0.143013 -0.283767 -0.948169
vn -0.084050 0.175974 -0.980800
vn 0.070835 -0.249739 -0.965719
vn -0.625713 0.779807 -0.019594
vn -0.469480 0.688944 0.552218
vn -0.617486 0.357253 -0.700772
vn -0.405291 -0.010102 -0.914132
vn 0.104925 -0.155037 -0.982321
vn -0.359518 0.198009 -0.911888
vn -0.612074 0.704366 0.359492
vn -0.954522 0.203808 -0.217603
vn -0.616571 0.783417 -0.078097
vn -0.922518 -0.313986 -0.224441
vn -0.469480 0.688944 0.552218
vn -0.988805 0.145818 0.031648
vn -0.779827 0.482326 -0.399039
vn 0.449785 0.200538 -0.870332
vn 0.143013 -0.283767 -0.948169
vn -0.922518 -0.313986 -0.224441
vn -0.625713 0.779807 -0.019594
vn -0.617486 0.357253 -0.700772
vn -0.359518 0.198009 -0.911888
vn -0.103641 -0.179388 -0.978304
vn 0.092259 0.293226 -0.951581
vn -0.322713 -0.180614 -0.929104
vn -0.084050 0.175974 -0.980800
vn 0.111425 0.150275 -0.982345
vn 0.263534 -0.534880 -0.802778
vn -0.239514 -0.885389 -0.398396
vn -0.358113 -0.644353 -0.675696
vn -0.446041 -0.001343 -0.895012
vn -0.358113 -0.644353 -0.675696
vn -0.443477 -0.021943 -0.896017
vn -0.954522 0.203808 -0.217603
vn -0.988805 0.145818 0.031648
vn -0.844883 0.534415 -0.023927
vn 0.076114 -0.884533 -0.460227
vn 0.263534 -0.534880 -0.802778
vn -0.118538 -0.809530 -0.574987
vn 0.500819 0.770333 -0.394673
vn 0.134771 0.918313 -0.372208
vn 0.210794 0.865484 -0.454426
vn -0.396505 0.618166 -0.678716
vn -0.446041 -0.001343 -0.895012
vn -0.443477 -0.021943 -0.896017
vn -0.256119 0.882470 -0.394525
vn 0.268382 0.537648 -0.799316
vn -0.396505 0.618166 -0.678716
vn 0.473013 -0.002564 -0.881052
vn -0.239514 -0.885389 -0.398396
vn 0.076114 -0.884533 -0.460227
vn -0.405291 -0.010102 -0.914132
vn 0.111425 0.150275 -0.982345
vn 0.172493 -0.004364 -0.985001
vn -0.973028 0.039705 -0.227242
vn 0.407769 -0.074315 -0.910056
vn -0.400509 0.193067 -0.895722
vn 0.535734 -0.742289 -0.402487
vn 0.139566 0.288867 -0.947142
vn 0.210794 -0.865484 -0.454426
vn -0.622799 -0.011902 -0.782291
vn -0.626051 0.556009 -0.546730
vn -0.625713 0.779807 -0.019594
vn 0.697277 -0.650704 -0.300647
vn 0.092259 0.293226 -0.951581
vn 0.535734 -0.742289 -0.402487
vn 0.942435 -0.071262 -0.326709
vn -0.359518 0.198009 -0.911888
vn 0.697277 -0.650704 -0.300647
vn -0.645776 -0.015778 -0.763364
vn -0.947236 -0.318197 0.038668
vn -0.854744 -0.250652 -0.454518
vn 0.139566 0.288867 -0.947142
vn -0.103641 -0.179388 -0.978304
vn 0.461180 -0.194684 -0.865685
vn -0.645776 -0.015778 -0.763364
vn -0.908207 -0.025544 -0.417741
vn -0.622799 -0.011902 -0.782291
vn 0.756818 0.573489 -0.313586
vn -0.405291 -0.010102 -0.914132
vn 0.942435 -0.071262 -0.326709
vn 0.070835 -0.249739 -0.965719
vn 0.756818 0.573489 -0.313586
vn 0.500819 0.770333 -0.394673
vn -0.899714 0.430538 -0.071782
vn -0.947236 -0.318197 0.038668
vn -0.782703 0.326650 -0.529788
vn 0.143013 -0.283767 -0.948169
vn 0.500819 0.770333 -0.394673
vn 0.210794 0.865484 -0.454426
vn 0.473013 -0.002564 -0.881052
vn 0.461180 -0.194684 -0.865685
vn 0.407769 -0.074315 -0.910056
vn -0.625713 0.779807 -0.019594
vn -0.616571 0.783417 -0.078097
vn -0.913539 0.406733 -0.003723
vn -0.256119 0.882470 -0.394525
vn -0.779827 0.482326 -0.399039
vn 0.076114 0.884533 -0.460227
vn -0.616571 0.783417 -0.078097
vn -0.779827 0.482326 -0.399039
vn -0.503471 0.839668 -0.203653
vn -0.824683 0.529138 -0.199777
vn -0.256119 0.882470 -0.394525
vn -0.396505 0.618166 -0.678716
vn -0.691047 0.609500 -0.388540
vn -0.824683 0.529138 -0.199777
vn -0.396505 0.618166 -0.678716
vn -0.635134 -0.704230 -0.317277
vn -0.983558 -0.058260 -0.170935
vn -0.915240 -0.048709 -0.399954
vn -0.645776 -0.015778 -0.763364
vn -0.622799 -0.011902 -0.782291
vn -0.985543 -0.013062 0.168921
vn -0.786332 -0.591618 -0.177959
vn -0.635134 -0.704230 -0.317277
vn -0.915240 -0.048709 -0.399954
vn -0.239514 -0.885389 -0.398396
vn -0.786332 -0.591618 -0.177959
vn -0.358113 -0.644353 -0.675696
vn -0.973028 0.039705 -0.227242
vn -0.904436 -0.426445 0.011811
vn -0.786332 -0.591618 -0.177959
vn -0.846819 0.513335 -0.139229
vn -0.913539 0.406733 -0.003723
vn -0.824683 0.529138 -0.199777
vn -0.983558 -0.058260 -0.170935
vn -0.966417 -0.125708 0.224132
vn -0.846819 0.513335 -0.139229
vn -0.966417 -0.125708 0.224132
vn -0.948257 0.316574 0.024293
vn -0.846819 0.513335 -0.139229
vn -0.966417 -0.125708 0.224132
vn -0.903187 -0.418511 0.095403
vn -0.985543 -0.013062 0.168921
vn -0.691047 0.609500 -0.388540
vn -0.983558 -0.058260 -0.170935
vn -0.846819 0.513335 -0.139229
vn -0.966417 -0.125708 0.224132
vn -0.983558 -0.058260 -0.170935
vn -0.787864 -0.611797 -0.070531
vn -0.779827 0.482326 -0.399039
vn -0.844883 0.534415 -0.023927
vn -0.412927 -0.093939 -0.905907
vn 0.143775 -0.918497 -0.368363
vn 0.535734 -0.742289 -0.402487
vn 0.210794 -0.865484 -0.454426
vn -0.118538 0.809530 -0.574987
vn 0.268382 0.537648 -0.799316
vn 0.076114 0.884533 -0.460227
vn -0.446041 -0.001343 -0.895012
vn -0.118538 -0.809530 -0.574987
vn 0.263534 -0.534880 -0.802778
vn -0.118538 0.809530 -0.574987
vn -0.446041 -0.001343 -0.895012
vn 0.268382 0.537648 -0.799316
vn 0.143775 -0.918497 -0.368363
vn 0.700944 -0.500552 -0.508060
vn 0.697277 -0.650704 -0.300647
vn 0.492333 -0.870250 0.016541
vn 0.078403 -0.863444 0.498314
vn 0.083622 -0.995227 0.050295
vn -0.988805 0.145818 0.031648
vn 0.075596 0.995570 0.055911
vn -0.844883 0.534415 -0.023927
vn 0.075596 0.995570 0.055911
vn -0.084050 0.175974 -0.980800
vn 0.449785 0.200538 -0.870332
vn 0.911902 0.386521 0.137975
vn 0.172493 -0.004364 -0.985001
vn 0.111425 0.150275 -0.982345
vn 0.466826 0.704786 0.534182
vn 0.911902 0.386521 0.137975
vn 0.492333 0.870250 0.016541
vn 0.979030 0.000000 0.203717
vn 0.681317 -0.295367 0.669750
vn 0.911902 -0.386521 0.137975
vn 0.104925 -0.155037 -0.982321
vn 0.492333 -0.870250 0.016541
vn -0.103641 -0.179388 -0.978304
vn -0.265643 -0.862883 0.429961
usemtl head_mat
f 1/1/1 2/2/2 3/3/3
f 4/4/4 5/5/5 6/6/6
f 7/7/7 8/8/8 9/9/9
f 10/10/10 11/11/11 12/12/12
f 13/13/13 14/14/14 15/15/15
f 16/16/16 17/17/17 18/18/18
f 19/19/19 20/20/20 21/21/21
f 22/22/22 23/23/23 24/24/24
f 25/25/25 26/26/26 27/27/27
f 28/28/28 29/29/29 30/30/30
f 31/31/31 32/32/32 33/33/33
f 34/34/34 35/35/35 36/36/36
f 37/37/37 38/38/38 39/39/39
f 40/40/40 41/41/41 42/42/42
f 43/43/43 44/44/44 45/45/45
f 46/46/46 47/47/47 48/48/48
f 49/49/49 50/50/50 51/51/51
f 52/52/52 53/53/53 54/54/54
f 55/55/55 56/56/56 57/57/57
f 58/58/58 59/59/59 60/60/60
f 61/61/61 62/62/62 63/63/63
f 64/64/64 65/65/65 66/66/66
f 67/67/67 68/68/68 69/69/69
f 70/70/70 71/71/71 72/72/72
f 73/73/73 74/74/74 75/75/75
f 76/76/76 77/77/77 78/78/78
f 79/79/79 80/80/80 81/81/81
f 82/82/82 83/83/83 84/84/84
f 85/85/85 86/86/86 87/87/87
f 88/88/88 89/89/89 90/90/90
f 91/91/91 92/92/92 93/93/93
f 94/94/94 95/95/95 96/96/96
f 97/97/97 98/98/98 99/99/99
f 100/100/100 101/101/101 102/102/102
f 103/103/103 104/104/104 105/105/105
f 106/106/106 107/107/107 108/108/108
f 109/109/109 110/110/110 111/111/111
f 112/112/112 113/113/113 114/114/114
f 115/115/115 116/116/116 117/117/117
f 118/118/118 119/119/119 120/120/120
f 121/121/121 122/122/122 123/123/123
f 124/124/124 125/125/125 126/126/126
f 127/127/127 128/128/128 129/129/129
f 130/130/130 131/131/131 132/132/132
f 133/133/133 134/134/134 135/135/135
f 136/136/136 137/137/137 138/138/138
f 139/139/139 140/140/140 141/141/141
f 142/142/142 143/143/143 144/144/144
f 145/145/145 146/146/146 147/147/147
f 148/148/148 149/149/149 150/150/150
f 151/151/151 152/152/152 153/153/153
f 154/154/154 155/155/155 156/156/156
f 157/157/157 158/158/158 159/159/159
f 160/160/160 161/161/161 162/162/162
f 163/163/163 164/164/164 165/165/165
f 166/166/166 167/167/167 168/168/168
f 169/169/169 170/170/170 171/171/171
f 172/172/172 173/173/173 174/174/174
f 175/175/175 176/176/176 177/177/177
f 178/178/178 179/179/179 180/180/180
f 181/181/181 182/182/182 183/183/183
f 184/184/184 185/185/185 186/186/186
f 187/187/187 188/188/188 189/189/189
f 190/190/190 191/191/191 192/192/192
f 193/193/193 194/194/194 195/195/195
f 196/196/196 197/197/197 198/198/198
f 199/199/199 200/200/200 201/201/201
f 202/202/202 203/203/203 204/204/204
f 205/205/205 206/206/206 207/207/207
f 208/208/208 209/209/209 210/210/210
f 211/211/211 212/212/212 213/213/213
f 214/214/214 215/215/215 216/216/216
f 217/217/217 218/218/218 219/219/219
f 220/220/220 221/221/221 222/222/222
f 223/223/223 224/224/224 225/225/225
f 226/226/226 227/227/227 228/228/228
f 229/229/229 230/230/230 231/231/231
f 232/232/232 233/233/233 234/234/234
f 235/235/235 236/236/236 237/237/237
f 238/238/238 239/239/239 240/240/240
f 241/241/241 242/242/242 243/243/243
f 244/244/244 245/245/245 246/246/246
f 247/247/247 248/248/248 249/249/249
f 250/250/250 251/251/251 252/252/252
f 253/253/253 254/254/254 255/255/255
f 256/256/256 257/257/257 258/258/258
f 259/259/259 260/260/260 261/261/261
f 262/262/262 263/263/263 264/264/264
f 265/265/265 266/266/266 267/267/267
f 268/268/268 269/269/269 270/270/270
f 271/271/271 272/272/272 273/273/273
f 274/274/274 275/275/275 276/276/276
f 277/277/277 278/278/278 279/279/279
f 280/280/280 281/281/281 282/282/282
f 283/283/283 284/284/284 285/285/285
f 286/286/286 287/287/287 288/288/288
f 289/289/289 290/290/290 291/291/291
f 292/292/292 293/293/293 294/294/294
f 295/295/295 296/296/296 297/297/297
f 298/298/298 299/299/299 300/300/300
f 301/301/301 302/302/302 303/303/303
f 304/304/304 305/305/305 306/306/306
f 307/307/307 308/308/308 309/309/309
f 310/310/310 311/311/311 312/312/312
f 313/313/313 314/314/314 315/315/315
f 316/316/316 317/317/317 318/318/318
f 319/319/319 320/320/320 321/321/321
f 322/322/322 323/323/323 324/324/324
f 325/325/325 326/326/326 327/327/327
f 328/328/328 329/329/329 330/330/330
f 331/331/331 332/332/332 333/333/333
f 334/334/334 335/335/335 336/336/336
f 337/337/337 338/338/338 339/339/339
f 340/340/340 341/341/341 342/342/342
f 343/343/343 344/344/344 345/345/345
f 346/346/346 347/347/347 348/348/348
f 349/349/349 350/350/350 351/351/351
f 352/352/352 353/353/353 354/354/354
f 355/355/355 356/356/356 357/357/357
f 358/358/358 359/359/359 360/360/360
f 361/361/361 362/362/362 363/363/363
f 364/364/364 365/365/365 366/366/366
f 367/367/367 368/368/368 369/369/369
f 370/370/370 371/371/371 372/372/372
f 373/373/373 374/374/374 375/375/375
f 376/376/376 377/377/377 378/378/378
f 379/379/379 380/380/380 381/381/381
f 382/382/382 383/383/383 384/384/384
f 385/385/385 386/386/386 387/387/387
f 388/388/388 389/389/389 390/390/390
f 391/391/391 392/392/392 393/393/393
f 394/394/394 395/395/395 396/396/396
f 397/397/397 398/398/398 399/399/399
f 400/400/400 401/401/401 402/402/402
f 403/403/403 404/404/404 405/405/405
f 406/406/406 407/407/407 408/408/408
f 409/409/409 410/410/410 411/411/411
f 412/412/412 413/413/413 414/414/414
f 415/415/415 416/416/416 417/417/417
f 418/418/418 419/419/419 420/420/420
f 421/421/421 422/422/422 423/423/423
f 424/424/424 425/425/425 426/426/426
f 427/427/427 428/428/428 429/429/429
f 430/430/430 431/431/431 432/432/432
f 433/433/433 434/434/434 435/435/435
f 436/436/436 437/437/437 438/438/438
f 439/439/439 440/440/440 441/441/441
f 442/442/442 443/443/443 444/444/444
f 445/445/445 446/446/446 447/447/447
f 448/448/448 449/449/449 450/450/450
f 451/451/451 452/452/452 453/453/453
f 454/454/454 455/455/455 456/456/456
f 457/457/457 458/458/458 459/459/459
f 460/460/460 461/461/461 462/462/462
f 463/463/463 464/464/464 465/465/465
f 466/466/466 467/467/467 468/468/468
f 469/469/469 470/470/470 471/471/471
f 472/472/472 473/473/473 474/474/474
f 475/475/475 476/476/476 477/477/477
f 478/478/478 479/479/479 480/480/480
f 481/481/481 482/482/482 483/483/483
f 484/484/484 485/485/485 486/486/486
f 487/487/487 488/488/488 489/489/489
f 490/490/490 491/491/491 492/492/492
f 493/493/493 494/494/494 495/495/495
f 496/496/496 497/497/497 498/498/498
f 499/499/499 500/500/500 501/501/501
f 502/502/502 503/503/503 504/504/504
f 505/505/505 506/506/506 507/507/507
f 508/508/508 509/509/509 510/510/510
f 511/511/511 512/512/512 513/513/513
f 514/514/514 515/515/515 516/516/516
f 517/517/517 518/518/518 519/519/519
f 520/520/520 521/521/521 522/522/522
f 523/523/523 524/524/524 525/525/525
f 526/526/526 527/527/527 528/528/528
f 529/529/529 530/530/530 531/531/531
f 532/532/532 533/533/533 534/534/534
f 535/535/535 536/536/536 537/537/537
f 538/538/538 539/539/539 540/540/540
f 541/541/541 542/542/542 543/543/543
f 544/544/544 545/545/545 546/546/546
f 547/547/547 548/548/548 549/549/549
f 550/550/550 551/551/551 552/552/552
f 553/553/553 554/554/554 555/555/555
f 556/556/556 557/557/557 558/558/558
f 559/559/559 560/560/560 561/561/561
f 562/562/562 563/563/563 564/564/564
f 565/565/565 566/566/566 567/567/567
f 568/568/568 569/569/569 570/570/570
f 571/571/571 572/572/572 573/573/573
f 574/574/574 575/575/575 576/576/576
f 577/577/577 578/578/578 579/579/579
f 580/580/580 581/581/581 582/582/582
f 583/583/583 584/584/584 585/585/585
f 586/586/586 587/587/587 588/588/588
f 589/589/589 590/590/590 591/591/591
f 592/592/592 593/593/593 594/594/594
f 595/595/595 596/596/596 597/597/597
f 598/598/598 599/599/599 600/600/600
f 601/601/601 602/602/602 603/603/603
f 604/604/604 605/605/605 606/606/606
