mtllib terror_head_08.mtl
g Cube_039
v -0.409630 -0.424263 0.257205
v -0.573664 -0.233047 0.024271
v -0.448503 -0.459071 0.064976
v -0.633947 -0.009608 0.030882
v -0.497302 0.234275 0.319575
v -0.580886 0.223027 0.018229
v -0.580886 0.223027 0.018229
v -0.407600 0.253398 -0.590174
v -0.597956 0.060667 -0.225861
v 0.509722 -0.474826 0.254449
v 0.252767 -0.490483 0.474901
v 0.222154 -0.535607 0.226611
v -0.448503 0.459071 0.064976
v -0.137851 0.406935 -0.358751
v -0.315662 0.398875 -0.407177
v -0.238501 0.464803 0.356594
v 0.222154 0.535607 0.226611
v -0.214456 0.525525 0.109531
v -0.214456 0.525525 0.109531
v 0.195740 0.467512 -0.190875
v -0.137851 0.406935 -0.358751
v 0.509722 0.474827 0.254449
v 0.509832 0.236268 -0.180539
v 0.322769 0.447137 -0.121571
v 0.509722 0.474827 0.254449
v 0.522361 0.255635 0.516444
v 0.713680 0.261750 0.267804
v 0.740569 -0.000000 0.278617
v 0.522361 -0.255635 0.516444
v 0.713680 -0.261750 0.267804
v 0.713680 -0.261750 0.267804
v 0.575841 -0.023550 -0.164672
v 0.740569 -0.000000 0.278617
v 0.322769 -0.447137 -0.121571
v 0.222154 -0.535607 0.226611
v 0.195740 -0.467512 -0.190875
v -0.238501 -0.464803 0.356594
v 0.222154 -0.535607 0.226611
v 0.252767 -0.490483 0.474901
v -0.214456 -0.525525 0.109531
v 0.195740 -0.467512 -0.190875
v 0.222154 -0.535607 0.226611
v 0.252767 0.490483 0.474901
v -0.293587 0.234985 0.590656
v 0.238871 0.249804 0.687844
v -0.312361 0.000000 0.640243
v 0.238871 -0.249804 0.687844
v 0.246701 -0.000000 0.737770
v -0.293587 0.234985 0.590656
v -0.531477 0.000000 0.354193
v -0.312361 0.000000 0.640243
v -0.497302 -0.234275 0.319575
v -0.238501 -0.464803 0.356594
v -0.293587 -0.234985 0.590656
v 0.522361 -0.255635 0.516444
v 0.252767 -0.490483 0.474901
v 0.473700 -0.451168 0.449605
v 0.534754 -0.000000 0.556172
v 0.238871 -0.249804 0.687844
v 0.522361 -0.255635 0.516444
v -0.409630 0.424263 0.257205
v -0.214456 0.525525 0.109531
v -0.448503 0.459071 0.064976
v -0.531477 0.000000 0.354193
v -0.293587 -0.234985 0.590656
v -0.312361 0.000000 0.640243
v -0.293587 -0.234985 0.590656
v 0.252767 -0.490483 0.474901
v 0.238871 -0.249804 0.687844
v -0.238501 0.464803 0.356594
v -0.497302 0.234275 0.319575
v -0.293587 0.234985 0.590656
v 0.238871 0.249804 0.687844
v 0.534754 -0.000000 0.556172
v 0.522361 0.255635 0.516444
v 0.252767 0.490483 0.474901
v 0.522361 0.255635 0.516444
v 0.473700 0.451168 0.449605
v -0.131888 -0.258635 -0.542850
v -0.315662 -0.398875 -0.407177
v -0.399069 -0.261546 -0.580052
v -0.111161 0.000000 -0.621874
v -0.399069 -0.261546 -0.580052
v -0.473361 -0.011802 -0.737770
v -0.312361 0.000000 0.640243
v 0.238871 0.249804 0.687844
v -0.293587 0.234985 0.590656
v -0.137851 -0.406935 -0.358751
v -0.131888 -0.258635 -0.542850
v -0.022005 -0.262449 -0.481398
v 0.322769 0.447137 -0.121571
v 0.148807 0.347282 -0.380840
v 0.195740 0.467512 -0.190875
v -0.407600 0.253398 -0.590174
v -0.111161 0.000000 -0.621874
v -0.473361 -0.011802 -0.737770
v -0.315662 0.398875 -0.407177
v -0.131888 0.258635 -0.542850
v -0.407600 0.253398 -0.590174
v 0.522361 -0.255635 0.516444
v 0.509722 -0.474826 0.254449
v 0.713680 -0.261750 0.267804
v 0.471222 -0.239261 -0.175505
v 0.509722 -0.474826 0.254449
v 0.322769 -0.447137 -0.121571
v 0.713680 0.261750 0.267804
v 0.575841 -0.023550 -0.164672
v 0.509832 0.236268 -0.180539
v 0.522361 0.255635 0.516444
v 0.740569 -0.000000 0.278617
v 0.713680 0.261750 0.267804
v 0.252767 0.490483 0.474901
v 0.509722 0.474827 0.254449
v 0.222154 0.535607 0.226611
v 0.222154 0.535607 0.226611
v 0.322769 0.447137 -0.121571
v 0.195740 0.467512 -0.190875
v -0.497302 0.234275 0.319575
v -0.448503 0.459071 0.064976
v -0.580886 0.223027 0.018229
v -0.580886 0.223027 0.018229
v -0.315662 0.398875 -0.407177
v -0.407600 0.253398 -0.590174
v -0.573664 -0.233047 0.024271
v -0.315662 -0.398875 -0.407177
v -0.448503 -0.459071 0.064976
v -0.600034 -0.097377 -0.219787
v -0.740569 -0.033156 -0.340050
v -0.589502 -0.034978 -0.407477
v -0.497302 -0.234275 0.319575
v -0.531477 0.000000 0.354193
v -0.633947 -0.009608 0.030882
v -0.600034 -0.097377 -0.219787
v -0.589502 -0.034978 -0.407477
v -0.399069 -0.261546 -0.580052
v -0.740569 -0.033156 -0.340050
v -0.664269 -0.030037 -0.197364
v -0.597956 0.060667 -0.225861
v -0.664269 -0.030037 -0.197364
v -0.640738 0.017594 -0.071718
v -0.597956 0.060667 -0.225861
v -0.664269 -0.030037 -0.197364
v -0.639554 -0.044179 -0.070800
v -0.633947 -0.009608 0.030882
v -0.597956 0.060667 -0.225861
v -0.589502 -0.034978 -0.407477
v -0.740569 -0.033156 -0.340050
v -0.664269 -0.030037 -0.197364
v -0.740569 -0.033156 -0.340050
v -0.600034 -0.097377 -0.219787
v -0.214456 -0.525525 0.109531
v -0.409630 -0.424263 0.257205
v -0.448503 -0.459071 0.064976
v 0.148807 -0.347282 -0.380840
v 0.322769 -0.447137 -0.121571
v 0.195740 -0.467512 -0.190875
v -0.022005 0.262449 -0.481398
v -0.131888 0.258635 -0.542850
v -0.137851 0.406935 -0.358751
v -0.111161 0.000000 -0.621874
v -0.022005 -0.262449 -0.481398
v -0.131888 -0.258635 -0.542850
v -0.022005 0.262449 -0.481398
v -0.111161 0.000000 -0.621874
v -0.131888 0.258635 -0.542850
v 0.148807 -0.347282 -0.380840
v 0.572108 -0.241174 -0.672144
v 0.471222 -0.239261 -0.175505
vt 0.253119 0.832801
vt 0.275895 0.876077
vt 0.247864 0.866097
vt 0.158204 0.833135
vt 0.128467 0.870013
vt 0.126351 0.818951
vt 0.126351 0.818951
vt 0.088201 0.754826
vt 0.142294 0.801523
vt 0.779655 0.861198
vt 0.790678 0.811071
vt 0.814378 0.855470
vt 0.098762 0.832015
vt 0.057076 0.787237
vt 0.077521 0.780584
vt 0.091817 0.882023
vt 0.026401 0.874169
vt 0.074244 0.843282
vt 0.074244 0.843282
vt 0.016166 0.815248
vt 0.057076 0.787237
vt 0.662156 0.851140
vt 0.655529 0.790999
vt 0.689352 0.808342
vt 0.662156 0.851140
vt 0.630842 0.892502
vt 0.630343 0.845492
vt 0.716249 0.871324
vt 0.747992 0.820080
vt 0.747898 0.867108
vt 0.747898 0.867108
vt 0.745464 0.931118
vt 0.716249 0.871324
vt 0.807252 0.903913
vt 0.814378 0.855470
vt 0.824620 0.911771
vt 0.238680 0.816702
vt 0.174018 0.828164
vt 0.191012 0.778333
vt 0.223123 0.856239
vt 0.166661 0.887126
vt 0.174018 0.828164
vt 0.046470 0.923589
vt 0.118662 0.906749
vt 0.075636 0.954900
vt 0.287137 0.773935
vt 0.217681 0.745582
vt 0.239286 0.722664
vt 0.118662 0.906749
vt 0.157672 0.876137
vt 0.143856 0.921467
vt 0.275629 0.825646
vt 0.238680 0.816702
vt 0.263372 0.790235
vt 0.747992 0.820080
vt 0.790678 0.811071
vt 0.769545 0.828704
vt 0.717852 0.812425
vt 0.759976 0.782064
vt 0.747992 0.820080
vt 0.104860 0.864997
vt 0.074244 0.843282
vt 0.098762 0.832015
vt 0.304092 0.817423
vt 0.263372 0.790235
vt 0.287137 0.773935
vt 0.263372 0.790235
vt 0.191012 0.778333
vt 0.217681 0.745582
vt 0.091817 0.882023
vt 0.128467 0.870013
vt 0.118662 0.906749
vt 0.643158 0.930378
vt 0.600788 0.900424
vt 0.630842 0.892502
vt 0.673602 0.901117
vt 0.630842 0.892502
vt 0.652322 0.883728
vt 0.208915 0.942353
vt 0.229739 0.919049
vt 0.240961 0.943636
vt 0.205205 0.977371
vt 0.240961 0.943636
vt 0.257051 0.978533
vt 0.143856 0.921467
vt 0.075636 0.954900
vt 0.118662 0.906749
vt 0.208812 0.913274
vt 0.208915 0.942353
vt 0.193285 0.937522
vt 0.689352 0.808342
vt 0.708984 0.769695
vt 0.706737 0.800469
vt 0.088201 0.754826
vt 0.051399 0.723716
vt 0.102803 0.719416
vt 0.077521 0.780584
vt 0.056032 0.758401
vt 0.088201 0.754826
vt 0.747992 0.820080
vt 0.779655 0.861198
vt 0.747898 0.867108
vt 0.777444 0.921291
vt 0.779655 0.861198
vt 0.807252 0.903913
vt 0.630343 0.845492
vt 0.621016 0.778827
vt 0.655529 0.790999
vt 0.630842 0.892502
vt 0.598641 0.841629
vt 0.630343 0.845492
vt 0.673602 0.901117
vt 0.662156 0.851140
vt 0.696838 0.856676
vt 0.696838 0.856676
vt 0.689352 0.808342
vt 0.706737 0.800469
vt 0.128467 0.870013
vt 0.098762 0.832015
vt 0.126351 0.818951
vt 0.126351 0.818951
vt 0.077521 0.780584
vt 0.088201 0.754826
vt 0.275895 0.876077
vt 0.229739 0.919049
vt 0.247864 0.866097
vt 0.288769 0.892081
vt 0.307129 0.911877
vt 0.286284 0.919648
vt 0.275629 0.825646
vt 0.304092 0.817423
vt 0.305648 0.860154
vt 0.290290 0.891536
vt 0.291055 0.920276
vt 0.240961 0.943636
vt 0.160700 0.779649
vt 0.157069 0.801241
vt 0.140936 0.800125
vt 0.158278 0.802535
vt 0.154868 0.820795
vt 0.142067 0.801748
vt 0.303486 0.890418
vt 0.302701 0.872686
vt 0.308512 0.859174
vt 0.139553 0.799831
vt 0.138475 0.771549
vt 0.159317 0.779355
vt 0.302519 0.891656
vt 0.307649 0.912876
vt 0.289289 0.893081
vt 0.223123 0.856239
vt 0.253119 0.832801
vt 0.247864 0.866097
vt 0.826764 0.942670
vt 0.807252 0.903913
vt 0.824620 0.911771
vt 0.040647 0.763723
vt 0.056032 0.758401
vt 0.057076 0.787237
vt 0.205205 0.977371
vt 0.193285 0.937522
vt 0.208915 0.942353
vt 0.040647 0.763723
vt 0.051399 0.723716
vt 0.056032 0.758401
vt 0.888253 0.696367
vt 0.933428 0.651271
vt 0.933652 0.712924
vn -0.602820 -0.684459 0.410029
vn -0.904030 -0.426837 0.023255
vn -0.624970 -0.780495 -0.015504
vn -0.978574 -0.012482 0.205518
vn -0.823519 0.367477 0.432177
vn -0.914996 0.403281 0.012147
vn -0.914996 0.403281 0.012147
vn -0.407098 0.629310 -0.661997
vn -0.818589 0.552125 -0.158334
vn 0.536953 -0.843579 0.007477
vn 0.076176 -0.848919 0.523005
vn 0.085515 -0.996023 0.024995
vn -0.618902 0.785232 -0.019258
vn 0.054233 0.891991 -0.448788
vn -0.278304 0.880356 -0.384084
vn -0.316763 0.837276 0.445678
vn 0.085515 0.996023 0.024995
vn -0.131844 0.991270 0.000580
vn -0.131844 0.991270 0.000580
vn 0.206008 0.898803 -0.386928
vn 0.054233 0.891991 -0.448788
vn 0.532045 0.846548 0.016847
vn 0.788521 0.552883 -0.269361
vn 0.442986 0.812300 -0.379384
vn 0.532045 0.846548 0.016847
vn 0.630648 0.337206 0.698981
vn 0.910354 0.405599 0.082127
vn 0.993621 0.000855 0.112769
vn 0.630648 -0.337206 0.698981
vn 0.908515 -0.411241 0.074039
vn 0.908515 -0.411241 0.074039
vn 0.975742 -0.061650 -0.210066
vn 0.993621 0.000855 0.112769
vn 0.476529 -0.787827 -0.390190
vn 0.085515 -0.996023 0.024995
vn 0.206008 -0.898803 -0.386928
vn -0.316763 -0.837276 0.445678
vn 0.085515 -0.996023 0.024995
vn 0.076176 -0.848919 0.523005
vn -0.131844 -0.991270 0.000580
vn 0.206008 -0.898803 -0.386928
vn 0.085515 -0.996023 0.024995
vn 0.076176 0.848919 0.523005
vn -0.472932 0.446319 0.759694
vn 0.152322 0.420342 0.894489
vn -0.515043 0.000000 0.857164
vn 0.152322 -0.420342 0.894489
vn 0.191994 0.000000 0.981396
vn -0.472932 0.446319 0.759694
vn -0.885172 0.001434 0.465262
vn -0.515043 0.000000 0.857164
vn -0.822908 -0.372390 0.429124
vn -0.316763 -0.837276 0.445678
vn -0.472932 -0.446319 0.759694
vn 0.630648 -0.337206 0.698981
vn 0.076176 -0.848919 0.523005
vn 0.535924 -0.658185 0.528752
vn 0.669342 0.000000 0.742954
vn 0.152322 -0.420342 0.894489
vn 0.630648 -0.337206 0.698981
vn -0.594246 0.688612 0.415554
vn -0.131844 0.991270 0.000580
vn -0.618902 0.785232 -0.019258
vn -0.885172 0.001434 0.465262
vn -0.472932 -0.446319 0.759694
vn -0.515043 0.000000 0.857164
vn -0.472932 -0.446319 0.759694
vn 0.076176 -0.848919 0.523005
vn 0.152322 -0.420342 0.894489
vn -0.316763 0.837276 0.445678
vn -0.823519 0.367477 0.432177
vn -0.472932 0.446319 0.759694
vn 0.152322 0.420342 0.894489
vn 0.669342 0.000000 0.742954
vn 0.630648 0.337206 0.698981
vn 0.076176 0.848919 0.523005
vn 0.630648 0.337206 0.698981
vn 0.535924 0.658185 0.528752
vn 0.263534 -0.534880 -0.802778
vn -0.281629 -0.878978 -0.384814
vn -0.373679 -0.661171 -0.650551
vn -0.448446 -0.001343 -0.893809
vn -0.373679 -0.661171 -0.650551
vn -0.439721 -0.021608 -0.897875
vn -0.515043 0.000000 0.857164
vn 0.152322 0.420342 0.894489
vn -0.472932 0.446319 0.759694
vn 0.054233 -0.891991 -0.448788
vn 0.263534 -0.534880 -0.802778
vn -0.118538 -0.809530 -0.574987
vn 0.442986 0.812300 -0.379384
vn 0.134743 0.918327 -0.372183
vn 0.206008 0.898803 -0.386928
vn -0.407098 0.629310 -0.661997
vn -0.448446 -0.001343 -0.893809
vn -0.439721 -0.021608 -0.897875
vn -0.278304 0.880356 -0.384084
vn 0.268382 0.537648 -0.799316
vn -0.407098 0.629310 -0.661997
vn 0.630648 -0.337206 0.698981
vn 0.536953 -0.843579 0.007477
vn 0.908515 -0.411241 0.074039
vn 0.732726 -0.634761 -0.245341
vn 0.536953 -0.843579 0.007477
vn 0.476529 -0.787827 -0.390190
vn 0.910354 0.405599 0.082127
vn 0.975742 -0.061650 -0.210066
vn 0.788521 0.552883 -0.269361
vn 0.630648 0.337206 0.698981
vn 0.993621 0.000855 0.112769
vn 0.910354 0.405599 0.082127
vn 0.076176 0.848919 0.523005
vn 0.532045 0.846548 0.016847
vn 0.085515 0.996023 0.024995
vn 0.085515 0.996023 0.024995
vn 0.442986 0.812300 -0.379384
vn 0.206008 0.898803 -0.386928
vn -0.823519 0.367477 0.432177
vn -0.618902 0.785232 -0.019258
vn -0.914996 0.403281 0.012147
vn -0.914996 0.403281 0.012147
vn -0.278304 0.880356 -0.384084
vn -0.407098 0.629310 -0.661997
vn -0.904030 -0.426837 0.023255
vn -0.281629 -0.878978 -0.384814
vn -0.624970 -0.780495 -0.015504
vn -0.748676 -0.655561 -0.098609
vn -0.909971 -0.050235 -0.411617
vn -0.905337 -0.084445 -0.416214
vn -0.822908 -0.372390 0.429124
vn -0.885172 0.001434 0.465262
vn -0.978574 -0.012482 0.205518
vn -0.748676 -0.655561 -0.098609
vn -0.905337 -0.084445 -0.416214
vn -0.373679 -0.661171 -0.650551
vn -0.909971 -0.050235 -0.411617
vn -0.966218 -0.090735 0.241226
vn -0.818589 0.552125 -0.158334
vn -0.966218 -0.090735 0.241226
vn -0.957902 0.286147 0.023317
vn -0.818589 0.552125 -0.158334
vn -0.966218 -0.090735 0.241226
vn -0.932600 -0.352983 0.075229
vn -0.978574 -0.012482 0.205518
vn -0.818589 0.552125 -0.158334
vn -0.905337 -0.084445 -0.416214
vn -0.909971 -0.050235 -0.411617
vn -0.966218 -0.090735 0.241226
vn -0.909971 -0.050235 -0.411617
vn -0.748676 -0.655561 -0.098609
vn -0.131844 -0.991270 0.000580
vn -0.602820 -0.684459 0.410029
vn -0.624970 -0.780495 -0.015504
vn 0.143744 -0.918527 -0.368302
vn 0.476529 -0.787827 -0.390190
vn 0.206008 -0.898803 -0.386928
vn -0.118538 0.809530 -0.574987
vn 0.268382 0.537648 -0.799316
vn 0.054233 0.891991 -0.448788
vn -0.448446 -0.001343 -0.893809
vn -0.118538 -0.809530 -0.574987
vn 0.263534 -0.534880 -0.802778
vn -0.118538 0.809530 -0.574987
vn -0.448446 -0.001343 -0.893809
vn 0.268382 0.537648 -0.799316
vn 0.143744 -0.918527 -0.368302
vn 0.705045 -0.495930 -0.506917
vn 0.732726 -0.634761 -0.245341
usemtl head_mat
f 1/1/1 2/2/2 3/3/3
f 4/4/4 5/5/5 6/6/6
f 7/7/7 8/8/8 9/9/9
f 10/10/10 11/11/11 12/12/12
f 13/13/13 14/14/14 15/15/15
f 16/16/16 17/17/17 18/18/18
f 19/19/19 20/20/20 21/21/21
f 22/22/22 23/23/23 24/24/24
f 25/25/25 26/26/26 27/27/27
f 28/28/28 29/29/29 30/30/30
f 31/31/31 32/32/32 33/33/33
f 34/34/34 35/35/35 36/36/36
f 37/37/37 38/38/38 39/39/39
f 40/40/40 41/41/41 42/42/42
f 43/43/43 44/44/44 45/45/45
f 46/46/46 47/47/47 48/48/48
f 49/49/49 50/50/50 51/51/51
f 52/52/52 53/53/53 54/54/54
f 55/55/55 56/56/56 57/57/57
f 58/58/58 59/59/59 60/60/60
f 61/61/61 62/62/62 63/63/63
f 64/64/64 65/65/65 66/66/66
f 67/67/67 68/68/68 69/69/69
f 70/70/70 71/71/71 72/72/72
f 73/73/73 74/74/74 75/75/75
f 76/76/76 77/77/77 78/78/78
f 79/79/79 80/80/80 81/81/81
f 82/82/82 83/83/83 84/84/84
f 85/85/85 86/86/86 87/87/87
f 88/88/88 89/89/89 90/90/90
f 91/91/91 92/92/92 93/93/93
f 94/94/94 95/95/95 96/96/96
f 97/97/97 98/98/98 99/99/99
f 100/100/100 101/101/101 102/102/102
f 103/103/103 104/104/104 105/105/105
f 106/106/106 107/107/107 108/108/108
f 109/109/109 110/110/110 111/111/111
f 112/112/112 113/113/113 114/114/114
f 115/115/115 116/116/116 117/117/117
f 118/118/118 119/119/119 120/120/120
f 121/121/121 122/122/122 123/123/123
f 124/124/124 125/125/125 126/126/126
f 127/127/127 128/128/128 129/129/129
f 130/130/130 131/131/131 132/132/132
f 133/133/133 134/134/134 135/135/135
f 136/136/136 137/137/137 138/138/138
f 139/139/139 140/140/140 141/141/141
f 142/142/142 143/143/143 144/144/144
f 145/145/145 146/146/146 147/147/147
f 148/148/148 149/149/149 150/150/150
f 151/151/151 152/152/152 153/153/153
f 154/154/154 155/155/155 156/156/156
f 157/157/157 158/158/158 159/159/159
f 160/160/160 161/161/161 162/162/162
f 163/163/163 164/164/164 165/165/165
f 166/166/166 167/167/167 168/168/168
f 169/169/169 170/170/170 171/171/171
f 172/172/172 173/173/173 174/174/174
f 175/175/175 176/176/176 177/177/177
f 178/178/178 179/179/179 180/180/180
f 181/181/181 182/182/182 183/183/183
f 184/184/184 185/185/185 186/186/186
f 187/187/187 188/188/188 189/189/189
f 190/190/190 191/191/191 192/192/192
f 193/193/193 194/194/194 195/195/195
f 196/196/196 197/197/197 198/198/198
f 199/199/199 200/200/200 201/201/201
f 202/202/202 203/203/203 204/204/204
f 205/205/205 206/206/206 207/207/207
f 208/208/208 209/209/209 210/210/210
f 211/211/211 212/212/212 213/213/213
f 214/214/214 215/215/215 216/216/216
f 217/217/217 218/218/218 219/219/219
f 220/220/220 221/221/221 222/222/222
f 223/223/223 224/224/224 225/225/225
f 226/226/226 227/227/227 228/228/228
f 229/229/229 230/230/230 231/231/231
f 232/232/232 233/233/233 234/234/234
f 235/235/235 236/236/236 237/237/237
f 238/238/238 239/239/239 240/240/240
f 241/241/241 242/242/242 243/243/243
f 244/244/244 245/245/245 246/246/246
f 247/247/247 248/248/248 249/249/249
f 250/250/250 251/251/251 252/252/252
f 253/253/253 254/254/254 255/255/255
f 256/256/256 257/257/257 258/258/258
f 259/259/259 260/260/260 261/261/261
f 262/262/262 263/263/263 264/264/264
f 265/265/265 266/266/266 267/267/267
f 268/268/268 269/269/269 270/270/270
f 271/271/271 272/272/272 273/273/273
f 274/274/274 275/275/275 276/276/276
f 277/277/277 278/278/278 279/279/279
f 280/280/280 281/281/281 282/282/282
f 283/283/283 284/284/284 285/285/285
f 286/286/286 287/287/287 288/288/288
f 289/289/289 290/290/290 291/291/291
f 292/292/292 293/293/293 294/294/294
f 295/295/295 296/296/296 297/297/297
f 298/298/298 299/299/299 300/300/300
f 301/301/301 302/302/302 303/303/303
f 304/304/304 305/305/305 306/306/306
f 307/307/307 308/308/308 309/309/309
f 310/310/310 311/311/311 312/312/312
f 313/313/313 314/314/314 315/315/315
f 316/316/316 317/317/317 318/318/318
f 319/319/319 320/320/320 321/321/321
f 322/322/322 323/323/323 324/324/324
f 325/325/325 326/326/326 327/327/327
f 328/328/328 329/329/329 330/330/330
f 331/331/331 332/332/332 333/333/333
f 334/334/334 335/335/335 336/336/336
f 337/337/337 338/338/338 339/339/339
f 340/340/340 341/341/341 342/342/342
f 343/343/343 344/344/344 345/345/345
f 346/346/346 347/347/347 348/348/348
f 349/349/349 350/350/350 351/351/351
f 352/352/352 353/353/353 354/354/354
f 355/355/355 356/356/356 357/357/357
f 358/358/358 359/359/359 360/360/360
f 361/361/361 362/362/362 363/363/363
f 364/364/364 365/365/365 366/366/366
f 367/367/367 368/368/368 369/369/369
f 370/370/370 371/371/371 372/372/372
f 373/373/373 374/374/374 375/375/375
f 376/376/376 377/377/377 378/378/378
f 379/379/379 380/380/380 381/381/381
f 382/382/382 383/383/383 384/384/384
f 385/385/385 386/386/386 387/387/387
f 388/388/388 389/389/389 390/390/390
f 391/391/391 392/392/392 393/393/393
f 394/394/394 395/395/395 396/396/396
f 397/397/397 398/398/398 399/399/399
f 400/400/400 401/401/401 402/402/402
f 403/403/403 404/404/404 405/405/405
f 406/406/406 407/407/407 408/408/408
f 409/409/409 410/410/410 411/411/411
f 412/412/412 413/413/413 414/414/414
f 415/415/415 416/416/416 417/417/417
f 418/418/418 419/419/419 420/420/420
f 421/421/421 422/422/422 423/423/423
f 424/424/424 425/425/425 426/426/426
f 427/427/427 428/428/428 429/429/429
f 430/430/430 431/431/431 432/432/432
f 433/433/433 434/434/434 435/435/435
f 436/436/436 437/437/437 438/438/438
f 439/439/439 440/440/440 441/441/441
f 442/442/442 443/443/443 444/444/444
f 445/445/445 446/446/446 447/447/447
f 448/448/448 449/449/449 450/450/450
f 451/451/451 452/452/452 453/453/453
f 454/454/454 455/455/455 456/456/456
f 457/457/457 458/458/458 459/459/459
f 460/460/460 461/461/461 462/462/462
f 463/463/463 464/464/464 465/465/465
f 466/466/466 467/467/467 468/468/468
f 469/469/469 470/470/470 471/471/471
f 472/472/472 473/473/473 474/474/474
f 475/475/475 476/476/476 477/477/477
f 478/478/478 479/479/479 480/480/480
f 481/481/481 482/482/482 483/483/483
f 484/484/484 485/485/485 486/486/486
f 487/487/487 488/488/488 489/489/489
f 490/490/490 491/491/491 492/492/492
f 493/493/493 494/494/494 495/495/495
f 496/496/496 497/497/497 498/498/498
f 499/499/499 500/500/500 501/501/501
f 502/502/502 503/503/503 504/504/504
