mtllib terror_head_06.mtl
g Cube_037
v -0.497302 -0.234275 0.316360
v -0.448503 -0.459071 0.068192
v -0.409630 -0.424263 0.253990
v -0.633947 -0.009608 0.156088
v -0.497302 0.234275 0.316360
v -0.580886 0.223027 0.021445
v -0.580886 0.223027 0.021445
v -0.407600 0.253398 -0.586958
v -0.597956 0.060667 -0.100655
v 0.509722 -0.474826 0.257665
v 0.252767 -0.490483 0.471685
v 0.222154 -0.535607 0.229827
v -0.448503 0.459071 0.068192
v -0.137851 0.406935 -0.355535
v -0.315662 0.398875 -0.403961
v -0.238501 0.464803 0.353378
v 0.222154 0.535607 0.229827
v -0.214456 0.525525 0.112747
v -0.214456 0.525525 0.112747
v 0.195740 0.467512 -0.187659
v -0.137851 0.406935 -0.355535
v 0.509722 0.474826 0.257665
v 0.509832 0.236268 -0.177324
v 0.322769 0.447137 -0.118355
v 0.509722 0.474826 0.257665
v 0.522361 0.255635 0.513229
v 0.713680 0.261750 0.271020
v 0.740569 0.000000 0.281833
v 0.522361 -0.255635 0.513229
v 0.713680 -0.261750 0.271020
v 0.713680 -0.261750 0.271020
v 0.575841 -0.023550 -0.161456
v 0.740569 0.000000 0.281833
v 0.322769 -0.447137 -0.118355
v 0.222154 -0.535607 0.229827
v 0.195740 -0.467512 -0.187659
v -0.238501 -0.464803 0.353378
v 0.222154 -0.535607 0.229827
v 0.252767 -0.490483 0.471685
v -0.214456 -0.525525 0.112747
v 0.195740 -0.467512 -0.187659
v 0.222154 -0.535607 0.229827
v 0.252767 0.490483 0.471685
v -0.293587 0.234985 0.587440
v 0.238871 0.249804 0.684628
v -0.312361 0.000000 0.637027
v 0.238871 -0.249804 0.684628
v 0.246701 0.000000 0.734554
v -0.293587 0.234985 0.587440
v -0.531477 0.000000 0.350978
v -0.312361 0.000000 0.637027
v -0.497302 -0.234275 0.316360
v -0.238501 -0.464803 0.353378
v -0.293587 -0.234985 0.587440
v 0.522361 -0.255635 0.513229
v 0.252767 -0.490483 0.471685
v 0.473700 -0.451168 0.446389
v 0.534754 0.000000 0.552957
v 0.238871 -0.249804 0.684628
v 0.522361 -0.255635 0.513229
v -0.409630 0.424263 0.253990
v -0.214456 0.525525 0.112747
v -0.448503 0.459071 0.068192
v -0.531477 0.000000 0.350978
v -0.293587 -0.234985 0.587440
v -0.312361 0.000000 0.637027
v -0.293587 -0.234985 0.587440
v 0.252767 -0.490483 0.471685
v 0.238871 -0.249804 0.684628
v -0.238501 0.464803 0.353378
v -0.497302 0.234275 0.316360
v -0.293587 0.234985 0.587440
v 0.238871 0.249804 0.684628
v 0.534754 0.000000 0.552957
v 0.522361 0.255635 0.513229
v 0.252767 0.490483 0.471685
v 0.522361 0.255635 0.513229
v 0.473700 0.451168 0.446389
v -0.131888 -0.258635 -0.539634
v -0.315662 -0.398875 -0.403961
v -0.399069 -0.261546 -0.576836
v -0.111161 0.000000 -0.618658
v -0.399069 -0.261546 -0.576836
v -0.473361 -0.011802 -0.734554
v -0.312361 0.000000 0.637027
v 0.238871 0.249804 0.684628
v -0.293587 0.234985 0.587440
v -0.137851 -0.406935 -0.355535
v -0.131888 -0.258635 -0.539634
v -0.022005 -0.262449 -0.478182
v 0.322769 0.447137 -0.118355
v 0.148807 0.347283 -0.377624
v 0.195740 0.467512 -0.187659
v -0.407600 0.253398 -0.586958
v -0.111161 0.000000 -0.618658
v -0.473361 -0.011802 -0.734554
v -0.315662 0.398875 -0.403961
v -0.131888 0.258635 -0.539634
v -0.407600 0.253398 -0.586958
v 0.522361 -0.255635 0.513229
v 0.509722 -0.474826 0.257665
v 0.713680 -0.261750 0.271020
v 0.471222 -0.239261 -0.172289
v 0.509722 -0.474826 0.257665
v 0.322769 -0.447137 -0.118355
v 0.713680 0.261750 0.271020
v 0.575841 -0.023550 -0.161456
v 0.509832 0.236268 -0.177324
v 0.522361 0.255635 0.513229
v 0.740569 0.000000 0.281833
v 0.713680 0.261750 0.271020
v 0.252767 0.490483 0.471685
v 0.509722 0.474826 0.257665
v 0.222154 0.535607 0.229827
v 0.222154 0.535607 0.229827
v 0.322769 0.447137 -0.118355
v 0.195740 0.467512 -0.187659
v -0.497302 0.234275 0.316360
v -0.448503 0.459071 0.068192
v -0.580886 0.223027 0.021445
v -0.580886 0.223027 0.021445
v -0.315662 0.398875 -0.403961
v -0.407600 0.253398 -0.586958
v -0.573664 -0.233047 0.027487
v -0.315662 -0.398875 -0.403961
v -0.448503 -0.459071 0.068192
v -0.600034 -0.097377 -0.094581
v -0.740569 -0.033156 -0.214844
v -0.589502 -0.034978 -0.282271
v -0.497302 -0.234275 0.316360
v -0.531477 0.000000 0.350978
v -0.633947 -0.009608 0.156088
v -0.600034 -0.097377 -0.094581
v -0.589502 -0.034978 -0.282271
v -0.399069 -0.261546 -0.576836
v -0.740569 -0.033156 -0.214844
vt 0.274463 0.841757
vt 0.247864 0.866097
vt 0.251485 0.846929
vt 0.157964 0.830082
vt 0.126532 0.854116
vt 0.126351 0.818951
vt 0.126351 0.818951
vt 0.088201 0.754826
vt 0.141446 0.798540
vt 0.779655 0.861198
vt 0.797843 0.828008
vt 0.814378 0.855470
vt 0.098762 0.832015
vt 0.057076 0.787237
vt 0.077521 0.780584
vt 0.086584 0.867437
vt 0.026401 0.874169
vt 0.074244 0.843282
vt 0.074244 0.843282
vt 0.016166 0.815248
vt 0.057076 0.787237
vt 0.662156 0.851140
vt 0.655529 0.790999
vt 0.689352 0.808342
vt 0.662156 0.851140
vt 0.634268 0.877343
vt 0.630343 0.845492
vt 0.716249 0.871324
vt 0.748582 0.834005
vt 0.747898 0.867108
vt 0.747898 0.867108
vt 0.745464 0.931118
vt 0.716249 0.871324
vt 0.807252 0.903913
vt 0.814378 0.855470
vt 0.824620 0.911771
vt 0.234203 0.831506
vt 0.174018 0.828164
vt 0.183703 0.796021
vt 0.223123 0.856239
vt 0.166661 0.887126
vt 0.174018 0.828164
vt 0.040634 0.912920
vt 0.113642 0.896664
vt 0.068731 0.943466
vt 0.286549 0.778145
vt 0.217169 0.749993
vt 0.238855 0.727286
vt 0.119995 0.893891
vt 0.159263 0.862802
vt 0.146268 0.906617
vt 0.274257 0.838502
vt 0.237288 0.829518
vt 0.262116 0.803318
vt 0.751699 0.829565
vt 0.794668 0.820709
vt 0.774091 0.838643
vt 0.717533 0.821662
vt 0.759611 0.791192
vt 0.747760 0.829524
vt 0.101133 0.851353
vt 0.074244 0.843282
vt 0.098762 0.832015
vt 0.306609 0.830415
vt 0.265590 0.802784
vt 0.290604 0.788338
vt 0.259140 0.800614
vt 0.185997 0.789293
vt 0.211640 0.757305
vt 0.089254 0.869442
vt 0.125953 0.857357
vt 0.116429 0.893661
vt 0.642712 0.921261
vt 0.600387 0.891197
vt 0.630525 0.883067
vt 0.677509 0.891465
vt 0.634468 0.883009
vt 0.656781 0.873764
vt 0.208915 0.942353
vt 0.229739 0.919049
vt 0.240961 0.943636
vt 0.205205 0.977371
vt 0.240961 0.943636
vt 0.257051 0.978533
vt 0.142963 0.917270
vt 0.074811 0.950488
vt 0.117821 0.902388
vt 0.208812 0.913274
vt 0.208915 0.942353
vt 0.193285 0.937522
vt 0.689352 0.808342
vt 0.708984 0.769695
vt 0.706737 0.800469
vt 0.088201 0.754826
vt 0.051399 0.723716
vt 0.102803 0.719416
vt 0.077521 0.780584
vt 0.056032 0.758401
vt 0.088201 0.754826
vt 0.751548 0.835218
vt 0.779655 0.861198
vt 0.747898 0.867108
vt 0.777444 0.921291
vt 0.779655 0.861198
vt 0.807252 0.903913
vt 0.630343 0.845492
vt 0.621016 0.778827
vt 0.655529 0.790999
vt 0.631312 0.878577
vt 0.598641 0.841629
vt 0.630343 0.845492
vt 0.680594 0.884177
vt 0.662156 0.851140
vt 0.696838 0.856676
vt 0.696838 0.856676
vt 0.689352 0.808342
vt 0.706737 0.800469
vt 0.126151 0.854110
vt 0.098762 0.832015
vt 0.126351 0.818951
vt 0.126351 0.818951
vt 0.077521 0.780584
vt 0.088201 0.754826
vt 0.275895 0.876077
vt 0.229739 0.919049
vt 0.247864 0.866097
vt 0.288490 0.895213
vt 0.306851 0.915009
vt 0.286006 0.922780
vt 0.274816 0.841668
vt 0.303723 0.835524
vt 0.305633 0.863202
vt 0.289651 0.894549
vt 0.289919 0.923349
vt 0.240961 0.943636
vt 0.160166 0.776719
vn -0.803815 -0.389669 0.449487
vn -0.620886 -0.783707 -0.017457
vn -0.592559 -0.687290 0.420126
vn -0.958977 -0.013581 0.283158
vn -0.806150 0.386885 0.447708
vn -0.912985 0.406548 -0.034304
vn -0.912985 0.406548 -0.034304
vn -0.430408 0.617153 -0.658689
vn -0.858694 0.484862 -0.165995
vn 0.559840 -0.828529 -0.010895
vn 0.075992 -0.847786 0.524865
vn 0.078281 -0.996783 0.017213
vn -0.619083 0.785169 -0.015687
vn 0.054233 0.891991 -0.448788
vn -0.278304 0.880356 -0.384084
vn -0.317464 0.835838 0.447874
vn 0.078281 0.996783 0.017213
vn -0.162666 0.986619 -0.011048
vn -0.162666 0.986619 -0.011048
vn 0.206008 0.898803 -0.386928
vn 0.054233 0.891991 -0.448788
vn 0.552306 0.833633 0.003815
vn 0.788555 0.554778 -0.265334
vn 0.442986 0.812300 -0.379384
vn 0.552306 0.833633 0.003815
vn 0.625988 0.337242 0.703141
vn 0.909191 0.401355 0.110845
vn 0.987237 0.001343 0.159250
vn 0.625988 -0.337242 0.703141
vn 0.906483 -0.410728 0.097936
vn 0.906483 -0.410728 0.097936
vn 0.974478 -0.063297 -0.215374
vn 0.987237 0.001343 0.159250
vn 0.476529 -0.787827 -0.390190
vn 0.078281 -0.996783 0.017213
vn 0.206008 -0.898803 -0.386928
vn -0.317464 -0.835838 0.447874
vn 0.078281 -0.996783 0.017213
vn 0.075992 -0.847786 0.524865
vn -0.162666 -0.986619 -0.011048
vn 0.206008 -0.898803 -0.386928
vn 0.078281 -0.996783 0.017213
vn 0.075992 0.847786 0.524865
vn -0.472932 0.446319 0.759694
vn 0.152322 0.420342 0.894489
vn -0.515043 0.000000 0.857164
vn 0.152322 -0.420342 0.894489
vn 0.191994 0.000000 0.981396
vn -0.472932 0.446319 0.759694
vn -0.842885 0.002472 0.538088
vn -0.515043 0.000000 0.857164
vn -0.803815 -0.389669 0.449487
vn -0.317464 -0.835838 0.447874
vn -0.472932 -0.446319 0.759694
vn 0.625988 -0.337242 0.703141
vn 0.075992 -0.847786 0.524865
vn 0.533760 -0.657334 0.531989
vn 0.665382 0.000000 0.746503
vn 0.152322 -0.420342 0.894489
vn 0.625988 -0.337242 0.703141
vn -0.592559 0.687290 0.420126
vn -0.162666 0.986619 -0.011048
vn -0.619083 0.785169 -0.015687
vn -0.842885 0.002472 0.538088
vn -0.472932 -0.446319 0.759694
vn -0.515043 0.000000 0.857164
vn -0.472932 -0.446319 0.759694
vn 0.075992 -0.847786 0.524865
vn 0.152322 -0.420342 0.894489
vn -0.317464 0.835838 0.447874
vn -0.806150 0.386885 0.447708
vn -0.472932 0.446319 0.759694
vn 0.152322 0.420342 0.894489
vn 0.665382 0.000000 0.746503
vn 0.625988 0.337242 0.703141
vn 0.075992 0.847786 0.524865
vn 0.625988 0.337242 0.703141
vn 0.533760 0.657334 0.531989
vn 0.263534 -0.534880 -0.802778
vn -0.281629 -0.878978 -0.384814
vn -0.401572 -0.647435 -0.647740
vn -0.436844 -0.001343 -0.899536
vn -0.401572 -0.647435 -0.647740
vn -0.471006 -0.024263 -0.881796
vn -0.515043 0.000000 0.857164
vn 0.152322 0.420342 0.894489
vn -0.472932 0.446319 0.759694
vn 0.054233 -0.891991 -0.448788
vn 0.263534 -0.534880 -0.802778
vn -0.118658 -0.809582 -0.574889
vn 0.442986 0.812300 -0.379384
vn 0.134955 0.918223 -0.372362
vn 0.206008 0.898803 -0.386928
vn -0.430408 0.617153 -0.658689
vn -0.436844 -0.001343 -0.899536
vn -0.471006 -0.024263 -0.881796
vn -0.278304 0.880356 -0.384084
vn 0.268382 0.537648 -0.799316
vn -0.430408 0.617153 -0.658689
vn 0.625988 -0.337242 0.703141
vn 0.559840 -0.828529 -0.010895
vn 0.906483 -0.410728 0.097936
vn 0.732726 -0.634761 -0.245341
vn 0.559840 -0.828529 -0.010895
vn 0.476529 -0.787827 -0.390190
vn 0.909191 0.401355 0.110845
vn 0.974478 -0.063297 -0.215374
vn 0.788555 0.554778 -0.265334
vn 0.625988 0.337242 0.703141
vn 0.987237 0.001343 0.159250
vn 0.909191 0.401355 0.110845
vn 0.075992 0.847786 0.524865
vn 0.552306 0.833633 0.003815
vn 0.078281 0.996783 0.017213
vn 0.078281 0.996783 0.017213
vn 0.442986 0.812300 -0.379384
vn 0.206008 0.898803 -0.386928
vn -0.806150 0.386885 0.447708
vn -0.619083 0.785169 -0.015687
vn -0.912985 0.406548 -0.034304
vn -0.912985 0.406548 -0.034304
vn -0.278304 0.880356 -0.384084
vn -0.430408 0.617153 -0.658689
vn -0.899939 -0.435412 -0.022920
vn -0.281629 -0.878978 -0.384814
vn -0.620886 -0.783707 -0.017457
vn -0.799517 -0.590886 -0.107825
vn -0.909971 -0.050235 -0.411617
vn -0.926308 -0.078708 -0.368454
vn -0.803815 -0.389669 0.449487
vn -0.842885 0.002472 0.538088
vn -0.958977 -0.013581 0.283158
vn -0.799517 -0.590886 -0.107825
vn -0.926308 -0.078708 -0.368454
vn -0.401572 -0.647435 -0.647740
vn -0.909971 -0.050235 -0.411617
usemtl head_mat
f 1/1/1 2/2/2 3/3/3
f 4/4/4 5/5/5 6/6/6
f 7/7/7 8/8/8 9/9/9
f 10/10/10 11/11/11 12/12/12
f 13/13/13 14/14/14 15/15/15
f 16/16/16 17/17/17 18/18/18
f 19/19/19 20/20/20 21/21/21
f 22/22/22 23/23/23 24/24/24
f 25/25/25 26/26/26 27/27/27
f 28/28/28 29/29/29 30/30/30
f 31/31/31 32/32/32 33/33/33
f 34/34/34 35/35/35 36/36/36
f 37/37/37 38/38/38 39/39/39
f 40/40/40 41/41/41 42/42/42
f 43/43/43 44/44/44 45/45/45
f 46/46/46 47/47/47 48/48/48
f 49/49/49 50/50/50 51/51/51
f 52/52/52 53/53/53 54/54/54
f 55/55/55 56/56/56 57/57/57
f 58/58/58 59/59/59 60/60/60
f 61/61/61 62/62/62 63/63/63
f 64/64/64 65/65/65 66/66/66
f 67/67/67 68/68/68 69/69/69
f 70/70/70 71/71/71 72/72/72
f 73/73/73 74/74/74 75/75/75
f 76/76/76 77/77/77 78/78/78
f 79/79/79 80/80/80 81/81/81
f 82/82/82 83/83/83 84/84/84
f 85/85/85 86/86/86 87/87/87
f 88/88/88 89/89/89 90/90/90
f 91/91/91 92/92/92 93/93/93
f 94/94/94 95/95/95 96/96/96
f 97/97/97 98/98/98 99/99/99
f 100/100/100 101/101/101 102/102/102
f 103/103/103 104/104/104 105/105/105
f 106/106/106 107/107/107 108/108/108
f 109/109/109 110/110/110 111/111/111
f 112/112/112 113/113/113 114/114/114
f 115/115/115 116/116/116 117/117/117
f 118/118/118 119/119/119 120/120/120
f 121/121/121 122/122/122 123/123/123
f 124/124/124 125/125/125 126/126/126
f 127/127/127 128/128/128 129/129/129
f 130/130/130 131/131/131 132/132/132
f 133/133/133 134/134/134 135/135/135
f 136/136/136 137/137/137 138/138/138
f 139/139/139 140/140/140 141/141/141
f 142/142/142 143/143/143 144/144/144
f 145/145/145 146/146/146 147/147/147
f 148/148/148 149/149/149 150/150/150
f 151/151/151 152/152/152 153/153/153
f 154/154/154 155/155/155 156/156/156
f 157/157/157 158/158/158 159/159/159
f 160/160/160 161/161/161 162/162/162
f 163/163/163 164/164/164 165/165/165
f 166/166/166 167/167/167 168/168/168
f 169/169/169 170/170/170 171/171/171
f 172/172/172 173/173/173 174/174/174
f 175/175/175 176/176/176 177/177/177
f 178/178/178 179/179/179 180/180/180
f 181/181/181 182/182/182 183/183/183
f 184/184/184 185/185/185 186/186/186
f 187/187/187 188/188/188 189/189/189
f 190/190/190 191/191/191 192/192/192
f 193/193/193 194/194/194 195/195/195
f 196/196/196 197/197/197 198/198/198
f 199/199/199 200/200/200 201/201/201
f 202/202/202 203/203/203 204/204/204
f 205/205/205 206/206/206 207/207/207
f 208/208/208 209/209/209 210/210/210
f 211/211/211 212/212/212 213/213/213
f 214/214/214 215/215/215 216/216/216
f 217/217/217 218/218/218 219/219/219
f 220/220/220 221/221/221 222/222/222
f 223/223/223 224/224/224 225/225/225
f 226/226/226 227/227/227 228/228/228
f 229/229/229 230/230/230 231/231/231
f 232/232/232 233/233/233 234/234/234
f 235/235/235 236/236/236 237/237/237
f 238/238/238 239/239/239 240/240/240
f 241/241/241 242/242/242 243/243/243
f 244/244/244 245/245/245 246/246/246
f 247/247/247 248/248/248 249/249/249
f 250/250/250 251/251/251 252/252/252
f 253/253/253 254/254/254 255/255/255
f 256/256/256 257/257/257 258/258/258
f 259/259/259 260/260/260 261/261/261
f 262/262/262 263/263/263 264/264/264
f 265/265/265 266/266/266 267/267/267
f 268/268/268 269/269/269 270/270/270
f 271/271/271 272/272/272 273/273/273
f 274/274/274 275/275/275 276/276/276
f 277/277/277 278/278/278 279/279/279
f 280/280/280 281/281/281 282/282/282
f 283/283/283 284/284/284 285/285/285
f 286/286/286 287/287/287 288/288/288
f 289/289/289 290/290/290 291/291/291
f 292/292/292 293/293/293 294/294/294
f 295/295/295 296/296/296 297/297/297
f 298/298/298 299/299/299 300/300/300
f 301/301/301 302/302/302 303/303/303
f 304/304/304 305/305/305 306/306/306
f 307/307/307 308/308/308 309/309/309
f 310/310/310 311/311/311 312/312/312
f 313/313/313 314/314/314 315/315/315
f 316/316/316 317/317/317 318/318/318
f 319/319/319 320/320/320 321/321/321
f 322/322/322 323/323/323 324/324/324
f 325/325/325 326/326/326 327/327/327
f 328/328/328 329/329/329 330/330/330
f 331/331/331 332/332/332 333/333/333
f 334/334/334 335/335/335 336/336/336
f 337/337/337 338/338/338 339/339/339
f 340/340/340 341/341/341 342/342/342
f 343/343/343 344/344/344 345/345/345
f 346/346/346 347/347/347 348/348/348
f 349/349/349 350/350/350 351/351/351
f 352/352/352 353/353/353 354/354/354
f 355/355/355 356/356/356 357/357/357
f 358/358/358 359/359/359 360/360/360
f 361/361/361 362/362/362 363/363/363
f 364/364/364 365/365/365 366/366/366
f 367/367/367 368/368/368 369/369/369
f 370/370/370 371/371/371 372/372/372
f 373/373/373 374/374/374 375/375/375
f 376/376/376 377/377/377 378/378/378
f 379/379/379 380/380/380 381/381/381
f 382/382/382 383/383/383 384/384/384
f 385/385/385 386/386/386 387/387/387
f 388/388/388 389/389/389 390/390/390
f 391/391/391 392/392/392 393/393/393
f 394/394/394 395/395/395 396/396/396
f 397/397/397 398/398/398 399/399/399
f 400/400/400 401/401/401 402/402/402
f 403/403/403 404/404/404 405/405/405
f 406/406/406 407/407/407 408/408/408
